<?xml version="1.0" standalone="no"?>
<svg xmlns="http://www.w3.org/2000/svg" width="500" height="500"><defs><clipPath id="clip-path-dot-color"><rect x="29" y="128" width="9" height="9" transform="rotate(0,33.5,132.5)"/><rect x="29" y="137" width="9" height="9" transform="rotate(0,33.5,141.5)"/><rect x="29" y="155" width="9" height="9" transform="rotate(0,33.5,159.5)"/><rect x="29" y="182" width="9" height="9" transform="rotate(0,33.5,186.5)"/><rect x="29" y="191" width="9" height="9" transform="rotate(0,33.5,195.5)"/><rect x="29" y="200" width="9" height="9" transform="rotate(0,33.5,204.5)"/><rect x="29" y="209" width="9" height="9" transform="rotate(0,33.5,213.5)"/><rect x="29" y="254" width="9" height="9" transform="rotate(0,33.5,258.5)"/><rect x="29" y="263" width="9" height="9" transform="rotate(0,33.5,267.5)"/><rect x="29" y="272" width="9" height="9" transform="rotate(0,33.5,276.5)"/><rect x="29" y="281" width="9" height="9" transform="rotate(0,33.5,285.5)"/><rect x="29" y="290" width="9" height="9" transform="rotate(0,33.5,294.5)"/><rect x="29" y="299" width="9" height="9" transform="rotate(0,33.5,303.5)"/><rect x="29" y="317" width="9" height="9" transform="rotate(0,33.5,321.5)"/><rect x="29" y="344" width="9" height="9" transform="rotate(0,33.5,348.5)"/><rect x="29" y="389" width="9" height="9" transform="rotate(0,33.5,393.5)"/><rect x="38" y="101" width="9" height="9" transform="rotate(0,42.5,105.5)"/><rect x="38" y="137" width="9" height="9" transform="rotate(0,42.5,141.5)"/><rect x="38" y="155" width="9" height="9" transform="rotate(0,42.5,159.5)"/><rect x="38" y="164" width="9" height="9" transform="rotate(0,42.5,168.5)"/><rect x="38" y="182" width="9" height="9" transform="rotate(0,42.5,186.5)"/><rect x="38" y="209" width="9" height="9" transform="rotate(0,42.5,213.5)"/><rect x="38" y="236" width="9" height="9" transform="rotate(0,42.5,240.5)"/><rect x="38" y="263" width="9" height="9" transform="rotate(0,42.5,267.5)"/><rect x="38" y="272" width="9" height="9" transform="rotate(0,42.5,276.5)"/><rect x="38" y="281" width="9" height="9" transform="rotate(0,42.5,285.5)"/><rect x="38" y="299" width="9" height="9" transform="rotate(0,42.5,303.5)"/><rect x="38" y="308" width="9" height="9" transform="rotate(0,42.5,312.5)"/><rect x="38" y="335" width="9" height="9" transform="rotate(0,42.5,339.5)"/><rect x="38" y="344" width="9" height="9" transform="rotate(0,42.5,348.5)"/><rect x="38" y="362" width="9" height="9" transform="rotate(0,42.5,366.5)"/><rect x="38" y="371" width="9" height="9" transform="rotate(0,42.5,375.5)"/><rect x="38" y="380" width="9" height="9" transform="rotate(0,42.5,384.5)"/><rect x="38" y="389" width="9" height="9" transform="rotate(0,42.5,393.5)"/><rect x="47" y="101" width="9" height="9" transform="rotate(0,51.5,105.5)"/><rect x="47" y="119" width="9" height="9" transform="rotate(0,51.5,123.5)"/><rect x="47" y="137" width="9" height="9" transform="rotate(0,51.5,141.5)"/><rect x="47" y="146" width="9" height="9" transform="rotate(0,51.5,150.5)"/><rect x="47" y="173" width="9" height="9" transform="rotate(0,51.5,177.5)"/><rect x="47" y="182" width="9" height="9" transform="rotate(0,51.5,186.5)"/><rect x="47" y="191" width="9" height="9" transform="rotate(0,51.5,195.5)"/><rect x="47" y="200" width="9" height="9" transform="rotate(0,51.5,204.5)"/><rect x="47" y="227" width="9" height="9" transform="rotate(0,51.5,231.5)"/><rect x="47" y="272" width="9" height="9" transform="rotate(0,51.5,276.5)"/><rect x="47" y="281" width="9" height="9" transform="rotate(0,51.5,285.5)"/><rect x="47" y="317" width="9" height="9" transform="rotate(0,51.5,321.5)"/><rect x="47" y="326" width="9" height="9" transform="rotate(0,51.5,330.5)"/><rect x="47" y="335" width="9" height="9" transform="rotate(0,51.5,339.5)"/><rect x="47" y="353" width="9" height="9" transform="rotate(0,51.5,357.5)"/><rect x="47" y="362" width="9" height="9" transform="rotate(0,51.5,366.5)"/><rect x="47" y="380" width="9" height="9" transform="rotate(0,51.5,384.5)"/><rect x="47" y="389" width="9" height="9" transform="rotate(0,51.5,393.5)"/><rect x="56" y="110" width="9" height="9" transform="rotate(0,60.5,114.5)"/><rect x="56" y="164" width="9" height="9" transform="rotate(0,60.5,168.5)"/><rect x="56" y="173" width="9" height="9" transform="rotate(0,60.5,177.5)"/><rect x="56" y="182" width="9" height="9" transform="rotate(0,60.5,186.5)"/><rect x="56" y="191" width="9" height="9" transform="rotate(0,60.5,195.5)"/><rect x="56" y="218" width="9" height="9" transform="rotate(0,60.5,222.5)"/><rect x="56" y="227" width="9" height="9" transform="rotate(0,60.5,231.5)"/><rect x="56" y="245" width="9" height="9" transform="rotate(0,60.5,249.5)"/><rect x="56" y="263" width="9" height="9" transform="rotate(0,60.5,267.5)"/><rect x="56" y="281" width="9" height="9" transform="rotate(0,60.5,285.5)"/><rect x="56" y="299" width="9" height="9" transform="rotate(0,60.5,303.5)"/><rect x="56" y="308" width="9" height="9" transform="rotate(0,60.5,312.5)"/><rect x="56" y="344" width="9" height="9" transform="rotate(0,60.5,348.5)"/><rect x="56" y="353" width="9" height="9" transform="rotate(0,60.5,357.5)"/><rect x="56" y="362" width="9" height="9" transform="rotate(0,60.5,366.5)"/><rect x="56" y="380" width="9" height="9" transform="rotate(0,60.5,384.5)"/><rect x="65" y="110" width="9" height="9" transform="rotate(0,69.5,114.5)"/><rect x="65" y="128" width="9" height="9" transform="rotate(0,69.5,132.5)"/><rect x="65" y="164" width="9" height="9" transform="rotate(0,69.5,168.5)"/><rect x="65" y="191" width="9" height="9" transform="rotate(0,69.5,195.5)"/><rect x="65" y="209" width="9" height="9" transform="rotate(0,69.5,213.5)"/><rect x="65" y="227" width="9" height="9" transform="rotate(0,69.5,231.5)"/><rect x="65" y="236" width="9" height="9" transform="rotate(0,69.5,240.5)"/><rect x="65" y="245" width="9" height="9" transform="rotate(0,69.5,249.5)"/><rect x="65" y="254" width="9" height="9" transform="rotate(0,69.5,258.5)"/><rect x="65" y="263" width="9" height="9" transform="rotate(0,69.5,267.5)"/><rect x="65" y="308" width="9" height="9" transform="rotate(0,69.5,312.5)"/><rect x="65" y="326" width="9" height="9" transform="rotate(0,69.5,330.5)"/><rect x="65" y="353" width="9" height="9" transform="rotate(0,69.5,357.5)"/><rect x="65" y="362" width="9" height="9" transform="rotate(0,69.5,366.5)"/><rect x="74" y="119" width="9" height="9" transform="rotate(0,78.5,123.5)"/><rect x="74" y="182" width="9" height="9" transform="rotate(0,78.5,186.5)"/><rect x="74" y="191" width="9" height="9" transform="rotate(0,78.5,195.5)"/><rect x="74" y="209" width="9" height="9" transform="rotate(0,78.5,213.5)"/><rect x="74" y="218" width="9" height="9" transform="rotate(0,78.5,222.5)"/><rect x="74" y="227" width="9" height="9" transform="rotate(0,78.5,231.5)"/><rect x="74" y="263" width="9" height="9" transform="rotate(0,78.5,267.5)"/><rect x="74" y="272" width="9" height="9" transform="rotate(0,78.5,276.5)"/><rect x="74" y="290" width="9" height="9" transform="rotate(0,78.5,294.5)"/><rect x="74" y="299" width="9" height="9" transform="rotate(0,78.5,303.5)"/><rect x="74" y="317" width="9" height="9" transform="rotate(0,78.5,321.5)"/><rect x="74" y="326" width="9" height="9" transform="rotate(0,78.5,330.5)"/><rect x="74" y="371" width="9" height="9" transform="rotate(0,78.5,375.5)"/><rect x="83" y="101" width="9" height="9" transform="rotate(0,87.5,105.5)"/><rect x="83" y="119" width="9" height="9" transform="rotate(0,87.5,123.5)"/><rect x="83" y="137" width="9" height="9" transform="rotate(0,87.5,141.5)"/><rect x="83" y="155" width="9" height="9" transform="rotate(0,87.5,159.5)"/><rect x="83" y="173" width="9" height="9" transform="rotate(0,87.5,177.5)"/><rect x="83" y="191" width="9" height="9" transform="rotate(0,87.5,195.5)"/><rect x="83" y="209" width="9" height="9" transform="rotate(0,87.5,213.5)"/><rect x="83" y="227" width="9" height="9" transform="rotate(0,87.5,231.5)"/><rect x="83" y="245" width="9" height="9" transform="rotate(0,87.5,249.5)"/><rect x="83" y="263" width="9" height="9" transform="rotate(0,87.5,267.5)"/><rect x="83" y="281" width="9" height="9" transform="rotate(0,87.5,285.5)"/><rect x="83" y="299" width="9" height="9" transform="rotate(0,87.5,303.5)"/><rect x="83" y="317" width="9" height="9" transform="rotate(0,87.5,321.5)"/><rect x="83" y="335" width="9" height="9" transform="rotate(0,87.5,339.5)"/><rect x="83" y="353" width="9" height="9" transform="rotate(0,87.5,357.5)"/><rect x="83" y="371" width="9" height="9" transform="rotate(0,87.5,375.5)"/><rect x="83" y="389" width="9" height="9" transform="rotate(0,87.5,393.5)"/><rect x="92" y="110" width="9" height="9" transform="rotate(0,96.5,114.5)"/><rect x="92" y="128" width="9" height="9" transform="rotate(0,96.5,132.5)"/><rect x="92" y="137" width="9" height="9" transform="rotate(0,96.5,141.5)"/><rect x="92" y="146" width="9" height="9" transform="rotate(0,96.5,150.5)"/><rect x="92" y="227" width="9" height="9" transform="rotate(0,96.5,231.5)"/><rect x="92" y="263" width="9" height="9" transform="rotate(0,96.5,267.5)"/><rect x="92" y="272" width="9" height="9" transform="rotate(0,96.5,276.5)"/><rect x="92" y="317" width="9" height="9" transform="rotate(0,96.5,321.5)"/><rect x="92" y="335" width="9" height="9" transform="rotate(0,96.5,339.5)"/><rect x="92" y="344" width="9" height="9" transform="rotate(0,96.5,348.5)"/><rect x="92" y="371" width="9" height="9" transform="rotate(0,96.5,375.5)"/><rect x="92" y="380" width="9" height="9" transform="rotate(0,96.5,384.5)"/><rect x="101" y="38" width="9" height="9" transform="rotate(0,105.5,42.5)"/><rect x="101" y="47" width="9" height="9" transform="rotate(0,105.5,51.5)"/><rect x="101" y="56" width="9" height="9" transform="rotate(0,105.5,60.5)"/><rect x="101" y="74" width="9" height="9" transform="rotate(0,105.5,78.5)"/><rect x="101" y="83" width="9" height="9" transform="rotate(0,105.5,87.5)"/><rect x="101" y="128" width="9" height="9" transform="rotate(0,105.5,132.5)"/><rect x="101" y="137" width="9" height="9" transform="rotate(0,105.5,141.5)"/><rect x="101" y="146" width="9" height="9" transform="rotate(0,105.5,150.5)"/><rect x="101" y="155" width="9" height="9" transform="rotate(0,105.5,159.5)"/><rect x="101" y="191" width="9" height="9" transform="rotate(0,105.5,195.5)"/><rect x="101" y="209" width="9" height="9" transform="rotate(0,105.5,213.5)"/><rect x="101" y="227" width="9" height="9" transform="rotate(0,105.5,231.5)"/><rect x="101" y="236" width="9" height="9" transform="rotate(0,105.5,240.5)"/><rect x="101" y="245" width="9" height="9" transform="rotate(0,105.5,249.5)"/><rect x="101" y="254" width="9" height="9" transform="rotate(0,105.5,258.5)"/><rect x="101" y="263" width="9" height="9" transform="rotate(0,105.5,267.5)"/><rect x="101" y="281" width="9" height="9" transform="rotate(0,105.5,285.5)"/><rect x="101" y="290" width="9" height="9" transform="rotate(0,105.5,294.5)"/><rect x="101" y="317" width="9" height="9" transform="rotate(0,105.5,321.5)"/><rect x="101" y="326" width="9" height="9" transform="rotate(0,105.5,330.5)"/><rect x="101" y="335" width="9" height="9" transform="rotate(0,105.5,339.5)"/><rect x="101" y="344" width="9" height="9" transform="rotate(0,105.5,348.5)"/><rect x="101" y="353" width="9" height="9" transform="rotate(0,105.5,357.5)"/><rect x="101" y="371" width="9" height="9" transform="rotate(0,105.5,375.5)"/><rect x="101" y="443" width="9" height="9" transform="rotate(0,105.5,447.5)"/><rect x="101" y="452" width="9" height="9" transform="rotate(0,105.5,456.5)"/><rect x="110" y="38" width="9" height="9" transform="rotate(0,114.5,42.5)"/><rect x="110" y="65" width="9" height="9" transform="rotate(0,114.5,69.5)"/><rect x="110" y="74" width="9" height="9" transform="rotate(0,114.5,78.5)"/><rect x="110" y="110" width="9" height="9" transform="rotate(0,114.5,114.5)"/><rect x="110" y="119" width="9" height="9" transform="rotate(0,114.5,123.5)"/><rect x="110" y="128" width="9" height="9" transform="rotate(0,114.5,132.5)"/><rect x="110" y="191" width="9" height="9" transform="rotate(0,114.5,195.5)"/><rect x="110" y="209" width="9" height="9" transform="rotate(0,114.5,213.5)"/><rect x="110" y="218" width="9" height="9" transform="rotate(0,114.5,222.5)"/><rect x="110" y="227" width="9" height="9" transform="rotate(0,114.5,231.5)"/><rect x="110" y="236" width="9" height="9" transform="rotate(0,114.5,240.5)"/><rect x="110" y="245" width="9" height="9" transform="rotate(0,114.5,249.5)"/><rect x="110" y="263" width="9" height="9" transform="rotate(0,114.5,267.5)"/><rect x="110" y="272" width="9" height="9" transform="rotate(0,114.5,276.5)"/><rect x="110" y="290" width="9" height="9" transform="rotate(0,114.5,294.5)"/><rect x="110" y="299" width="9" height="9" transform="rotate(0,114.5,303.5)"/><rect x="110" y="317" width="9" height="9" transform="rotate(0,114.5,321.5)"/><rect x="110" y="362" width="9" height="9" transform="rotate(0,114.5,366.5)"/><rect x="110" y="398" width="9" height="9" transform="rotate(0,114.5,402.5)"/><rect x="110" y="407" width="9" height="9" transform="rotate(0,114.5,411.5)"/><rect x="110" y="425" width="9" height="9" transform="rotate(0,114.5,429.5)"/><rect x="110" y="443" width="9" height="9" transform="rotate(0,114.5,447.5)"/><rect x="110" y="452" width="9" height="9" transform="rotate(0,114.5,456.5)"/><rect x="119" y="47" width="9" height="9" transform="rotate(0,123.5,51.5)"/><rect x="119" y="65" width="9" height="9" transform="rotate(0,123.5,69.5)"/><rect x="119" y="74" width="9" height="9" transform="rotate(0,123.5,78.5)"/><rect x="119" y="83" width="9" height="9" transform="rotate(0,123.5,87.5)"/><rect x="119" y="119" width="9" height="9" transform="rotate(0,123.5,123.5)"/><rect x="119" y="128" width="9" height="9" transform="rotate(0,123.5,132.5)"/><rect x="119" y="137" width="9" height="9" transform="rotate(0,123.5,141.5)"/><rect x="119" y="164" width="9" height="9" transform="rotate(0,123.5,168.5)"/><rect x="119" y="191" width="9" height="9" transform="rotate(0,123.5,195.5)"/><rect x="119" y="200" width="9" height="9" transform="rotate(0,123.5,204.5)"/><rect x="119" y="218" width="9" height="9" transform="rotate(0,123.5,222.5)"/><rect x="119" y="227" width="9" height="9" transform="rotate(0,123.5,231.5)"/><rect x="119" y="245" width="9" height="9" transform="rotate(0,123.5,249.5)"/><rect x="119" y="263" width="9" height="9" transform="rotate(0,123.5,267.5)"/><rect x="119" y="299" width="9" height="9" transform="rotate(0,123.5,303.5)"/><rect x="119" y="308" width="9" height="9" transform="rotate(0,123.5,312.5)"/><rect x="119" y="326" width="9" height="9" transform="rotate(0,123.5,330.5)"/><rect x="119" y="335" width="9" height="9" transform="rotate(0,123.5,339.5)"/><rect x="119" y="353" width="9" height="9" transform="rotate(0,123.5,357.5)"/><rect x="119" y="398" width="9" height="9" transform="rotate(0,123.5,402.5)"/><rect x="119" y="407" width="9" height="9" transform="rotate(0,123.5,411.5)"/><rect x="119" y="425" width="9" height="9" transform="rotate(0,123.5,429.5)"/><rect x="119" y="443" width="9" height="9" transform="rotate(0,123.5,447.5)"/><rect x="128" y="56" width="9" height="9" transform="rotate(0,132.5,60.5)"/><rect x="128" y="65" width="9" height="9" transform="rotate(0,132.5,69.5)"/><rect x="128" y="74" width="9" height="9" transform="rotate(0,132.5,78.5)"/><rect x="128" y="92" width="9" height="9" transform="rotate(0,132.5,96.5)"/><rect x="128" y="101" width="9" height="9" transform="rotate(0,132.5,105.5)"/><rect x="128" y="110" width="9" height="9" transform="rotate(0,132.5,114.5)"/><rect x="128" y="146" width="9" height="9" transform="rotate(0,132.5,150.5)"/><rect x="128" y="155" width="9" height="9" transform="rotate(0,132.5,159.5)"/><rect x="128" y="182" width="9" height="9" transform="rotate(0,132.5,186.5)"/><rect x="128" y="200" width="9" height="9" transform="rotate(0,132.5,204.5)"/><rect x="128" y="218" width="9" height="9" transform="rotate(0,132.5,222.5)"/><rect x="128" y="236" width="9" height="9" transform="rotate(0,132.5,240.5)"/><rect x="128" y="245" width="9" height="9" transform="rotate(0,132.5,249.5)"/><rect x="128" y="254" width="9" height="9" transform="rotate(0,132.5,258.5)"/><rect x="128" y="281" width="9" height="9" transform="rotate(0,132.5,285.5)"/><rect x="128" y="308" width="9" height="9" transform="rotate(0,132.5,312.5)"/><rect x="128" y="317" width="9" height="9" transform="rotate(0,132.5,321.5)"/><rect x="128" y="326" width="9" height="9" transform="rotate(0,132.5,330.5)"/><rect x="128" y="353" width="9" height="9" transform="rotate(0,132.5,357.5)"/><rect x="128" y="362" width="9" height="9" transform="rotate(0,132.5,366.5)"/><rect x="128" y="380" width="9" height="9" transform="rotate(0,132.5,384.5)"/><rect x="128" y="416" width="9" height="9" transform="rotate(0,132.5,420.5)"/><rect x="128" y="425" width="9" height="9" transform="rotate(0,132.5,429.5)"/><rect x="128" y="434" width="9" height="9" transform="rotate(0,132.5,438.5)"/><rect x="128" y="443" width="9" height="9" transform="rotate(0,132.5,447.5)"/><rect x="128" y="452" width="9" height="9" transform="rotate(0,132.5,456.5)"/><rect x="137" y="38" width="9" height="9" transform="rotate(0,141.5,42.5)"/><rect x="137" y="47" width="9" height="9" transform="rotate(0,141.5,51.5)"/><rect x="137" y="83" width="9" height="9" transform="rotate(0,141.5,87.5)"/><rect x="137" y="92" width="9" height="9" transform="rotate(0,141.5,96.5)"/><rect x="137" y="137" width="9" height="9" transform="rotate(0,141.5,141.5)"/><rect x="137" y="146" width="9" height="9" transform="rotate(0,141.5,150.5)"/><rect x="137" y="155" width="9" height="9" transform="rotate(0,141.5,159.5)"/><rect x="137" y="164" width="9" height="9" transform="rotate(0,141.5,168.5)"/><rect x="137" y="173" width="9" height="9" transform="rotate(0,141.5,177.5)"/><rect x="137" y="236" width="9" height="9" transform="rotate(0,141.5,240.5)"/><rect x="137" y="245" width="9" height="9" transform="rotate(0,141.5,249.5)"/><rect x="137" y="254" width="9" height="9" transform="rotate(0,141.5,258.5)"/><rect x="137" y="272" width="9" height="9" transform="rotate(0,141.5,276.5)"/><rect x="137" y="290" width="9" height="9" transform="rotate(0,141.5,294.5)"/><rect x="137" y="299" width="9" height="9" transform="rotate(0,141.5,303.5)"/><rect x="137" y="308" width="9" height="9" transform="rotate(0,141.5,312.5)"/><rect x="137" y="326" width="9" height="9" transform="rotate(0,141.5,330.5)"/><rect x="137" y="344" width="9" height="9" transform="rotate(0,141.5,348.5)"/><rect x="137" y="353" width="9" height="9" transform="rotate(0,141.5,357.5)"/><rect x="137" y="362" width="9" height="9" transform="rotate(0,141.5,366.5)"/><rect x="137" y="371" width="9" height="9" transform="rotate(0,141.5,375.5)"/><rect x="137" y="380" width="9" height="9" transform="rotate(0,141.5,384.5)"/><rect x="137" y="389" width="9" height="9" transform="rotate(0,141.5,393.5)"/><rect x="137" y="443" width="9" height="9" transform="rotate(0,141.5,447.5)"/><rect x="146" y="29" width="9" height="9" transform="rotate(0,150.5,33.5)"/><rect x="146" y="38" width="9" height="9" transform="rotate(0,150.5,42.5)"/><rect x="146" y="47" width="9" height="9" transform="rotate(0,150.5,51.5)"/><rect x="146" y="56" width="9" height="9" transform="rotate(0,150.5,60.5)"/><rect x="146" y="65" width="9" height="9" transform="rotate(0,150.5,69.5)"/><rect x="146" y="74" width="9" height="9" transform="rotate(0,150.5,78.5)"/><rect x="146" y="146" width="9" height="9" transform="rotate(0,150.5,150.5)"/><rect x="146" y="155" width="9" height="9" transform="rotate(0,150.5,159.5)"/><rect x="146" y="173" width="9" height="9" transform="rotate(0,150.5,177.5)"/><rect x="146" y="191" width="9" height="9" transform="rotate(0,150.5,195.5)"/><rect x="146" y="218" width="9" height="9" transform="rotate(0,150.5,222.5)"/><rect x="146" y="227" width="9" height="9" transform="rotate(0,150.5,231.5)"/><rect x="146" y="236" width="9" height="9" transform="rotate(0,150.5,240.5)"/><rect x="146" y="245" width="9" height="9" transform="rotate(0,150.5,249.5)"/><rect x="146" y="326" width="9" height="9" transform="rotate(0,150.5,330.5)"/><rect x="146" y="344" width="9" height="9" transform="rotate(0,150.5,348.5)"/><rect x="146" y="362" width="9" height="9" transform="rotate(0,150.5,366.5)"/><rect x="146" y="371" width="9" height="9" transform="rotate(0,150.5,375.5)"/><rect x="146" y="416" width="9" height="9" transform="rotate(0,150.5,420.5)"/><rect x="146" y="434" width="9" height="9" transform="rotate(0,150.5,438.5)"/><rect x="146" y="443" width="9" height="9" transform="rotate(0,150.5,447.5)"/><rect x="146" y="452" width="9" height="9" transform="rotate(0,150.5,456.5)"/><rect x="146" y="461" width="9" height="9" transform="rotate(0,150.5,465.5)"/><rect x="155" y="29" width="9" height="9" transform="rotate(0,159.5,33.5)"/><rect x="155" y="47" width="9" height="9" transform="rotate(0,159.5,51.5)"/><rect x="155" y="56" width="9" height="9" transform="rotate(0,159.5,60.5)"/><rect x="155" y="65" width="9" height="9" transform="rotate(0,159.5,69.5)"/><rect x="155" y="74" width="9" height="9" transform="rotate(0,159.5,78.5)"/><rect x="155" y="83" width="9" height="9" transform="rotate(0,159.5,87.5)"/><rect x="155" y="92" width="9" height="9" transform="rotate(0,159.5,96.5)"/><rect x="155" y="101" width="9" height="9" transform="rotate(0,159.5,105.5)"/><rect x="155" y="110" width="9" height="9" transform="rotate(0,159.5,114.5)"/><rect x="155" y="137" width="9" height="9" transform="rotate(0,159.5,141.5)"/><rect x="155" y="146" width="9" height="9" transform="rotate(0,159.5,150.5)"/><rect x="155" y="155" width="9" height="9" transform="rotate(0,159.5,159.5)"/><rect x="155" y="164" width="9" height="9" transform="rotate(0,159.5,168.5)"/><rect x="155" y="191" width="9" height="9" transform="rotate(0,159.5,195.5)"/><rect x="155" y="200" width="9" height="9" transform="rotate(0,159.5,204.5)"/><rect x="155" y="209" width="9" height="9" transform="rotate(0,159.5,213.5)"/><rect x="155" y="245" width="9" height="9" transform="rotate(0,159.5,249.5)"/><rect x="155" y="254" width="9" height="9" transform="rotate(0,159.5,258.5)"/><rect x="155" y="263" width="9" height="9" transform="rotate(0,159.5,267.5)"/><rect x="155" y="272" width="9" height="9" transform="rotate(0,159.5,276.5)"/><rect x="155" y="290" width="9" height="9" transform="rotate(0,159.5,294.5)"/><rect x="155" y="299" width="9" height="9" transform="rotate(0,159.5,303.5)"/><rect x="155" y="317" width="9" height="9" transform="rotate(0,159.5,321.5)"/><rect x="155" y="344" width="9" height="9" transform="rotate(0,159.5,348.5)"/><rect x="155" y="353" width="9" height="9" transform="rotate(0,159.5,357.5)"/><rect x="155" y="371" width="9" height="9" transform="rotate(0,159.5,375.5)"/><rect x="155" y="407" width="9" height="9" transform="rotate(0,159.5,411.5)"/><rect x="155" y="416" width="9" height="9" transform="rotate(0,159.5,420.5)"/><rect x="155" y="443" width="9" height="9" transform="rotate(0,159.5,447.5)"/><rect x="155" y="452" width="9" height="9" transform="rotate(0,159.5,456.5)"/><rect x="164" y="29" width="9" height="9" transform="rotate(0,168.5,33.5)"/><rect x="164" y="38" width="9" height="9" transform="rotate(0,168.5,42.5)"/><rect x="164" y="65" width="9" height="9" transform="rotate(0,168.5,69.5)"/><rect x="164" y="74" width="9" height="9" transform="rotate(0,168.5,78.5)"/><rect x="164" y="101" width="9" height="9" transform="rotate(0,168.5,105.5)"/><rect x="164" y="110" width="9" height="9" transform="rotate(0,168.5,114.5)"/><rect x="164" y="119" width="9" height="9" transform="rotate(0,168.5,123.5)"/><rect x="164" y="128" width="9" height="9" transform="rotate(0,168.5,132.5)"/><rect x="164" y="137" width="9" height="9" transform="rotate(0,168.5,141.5)"/><rect x="164" y="146" width="9" height="9" transform="rotate(0,168.5,150.5)"/><rect x="164" y="155" width="9" height="9" transform="rotate(0,168.5,159.5)"/><rect x="164" y="173" width="9" height="9" transform="rotate(0,168.5,177.5)"/><rect x="164" y="191" width="9" height="9" transform="rotate(0,168.5,195.5)"/><rect x="164" y="218" width="9" height="9" transform="rotate(0,168.5,222.5)"/><rect x="164" y="245" width="9" height="9" transform="rotate(0,168.5,249.5)"/><rect x="164" y="272" width="9" height="9" transform="rotate(0,168.5,276.5)"/><rect x="164" y="299" width="9" height="9" transform="rotate(0,168.5,303.5)"/><rect x="164" y="308" width="9" height="9" transform="rotate(0,168.5,312.5)"/><rect x="164" y="317" width="9" height="9" transform="rotate(0,168.5,321.5)"/><rect x="164" y="326" width="9" height="9" transform="rotate(0,168.5,330.5)"/><rect x="164" y="380" width="9" height="9" transform="rotate(0,168.5,384.5)"/><rect x="164" y="389" width="9" height="9" transform="rotate(0,168.5,393.5)"/><rect x="164" y="398" width="9" height="9" transform="rotate(0,168.5,402.5)"/><rect x="164" y="425" width="9" height="9" transform="rotate(0,168.5,429.5)"/><rect x="164" y="461" width="9" height="9" transform="rotate(0,168.5,465.5)"/><rect x="173" y="38" width="9" height="9" transform="rotate(0,177.5,42.5)"/><rect x="173" y="56" width="9" height="9" transform="rotate(0,177.5,60.5)"/><rect x="173" y="74" width="9" height="9" transform="rotate(0,177.5,78.5)"/><rect x="173" y="83" width="9" height="9" transform="rotate(0,177.5,87.5)"/><rect x="173" y="110" width="9" height="9" transform="rotate(0,177.5,114.5)"/><rect x="173" y="137" width="9" height="9" transform="rotate(0,177.5,141.5)"/><rect x="173" y="155" width="9" height="9" transform="rotate(0,177.5,159.5)"/><rect x="173" y="164" width="9" height="9" transform="rotate(0,177.5,168.5)"/><rect x="173" y="191" width="9" height="9" transform="rotate(0,177.5,195.5)"/><rect x="173" y="218" width="9" height="9" transform="rotate(0,177.5,222.5)"/><rect x="173" y="236" width="9" height="9" transform="rotate(0,177.5,240.5)"/><rect x="173" y="254" width="9" height="9" transform="rotate(0,177.5,258.5)"/><rect x="173" y="263" width="9" height="9" transform="rotate(0,177.5,267.5)"/><rect x="173" y="272" width="9" height="9" transform="rotate(0,177.5,276.5)"/><rect x="173" y="281" width="9" height="9" transform="rotate(0,177.5,285.5)"/><rect x="173" y="308" width="9" height="9" transform="rotate(0,177.5,312.5)"/><rect x="173" y="317" width="9" height="9" transform="rotate(0,177.5,321.5)"/><rect x="173" y="326" width="9" height="9" transform="rotate(0,177.5,330.5)"/><rect x="173" y="362" width="9" height="9" transform="rotate(0,177.5,366.5)"/><rect x="173" y="371" width="9" height="9" transform="rotate(0,177.5,375.5)"/><rect x="173" y="389" width="9" height="9" transform="rotate(0,177.5,393.5)"/><rect x="173" y="398" width="9" height="9" transform="rotate(0,177.5,402.5)"/><rect x="173" y="407" width="9" height="9" transform="rotate(0,177.5,411.5)"/><rect x="173" y="425" width="9" height="9" transform="rotate(0,177.5,429.5)"/><rect x="173" y="443" width="9" height="9" transform="rotate(0,177.5,447.5)"/><rect x="182" y="29" width="9" height="9" transform="rotate(0,186.5,33.5)"/><rect x="182" y="56" width="9" height="9" transform="rotate(0,186.5,60.5)"/><rect x="182" y="92" width="9" height="9" transform="rotate(0,186.5,96.5)"/><rect x="182" y="110" width="9" height="9" transform="rotate(0,186.5,114.5)"/><rect x="182" y="137" width="9" height="9" transform="rotate(0,186.5,141.5)"/><rect x="182" y="146" width="9" height="9" transform="rotate(0,186.5,150.5)"/><rect x="182" y="164" width="9" height="9" transform="rotate(0,186.5,168.5)"/><rect x="182" y="173" width="9" height="9" transform="rotate(0,186.5,177.5)"/><rect x="182" y="209" width="9" height="9" transform="rotate(0,186.5,213.5)"/><rect x="182" y="218" width="9" height="9" transform="rotate(0,186.5,222.5)"/><rect x="182" y="245" width="9" height="9" transform="rotate(0,186.5,249.5)"/><rect x="182" y="254" width="9" height="9" transform="rotate(0,186.5,258.5)"/><rect x="182" y="272" width="9" height="9" transform="rotate(0,186.5,276.5)"/><rect x="182" y="308" width="9" height="9" transform="rotate(0,186.5,312.5)"/><rect x="182" y="335" width="9" height="9" transform="rotate(0,186.5,339.5)"/><rect x="182" y="353" width="9" height="9" transform="rotate(0,186.5,357.5)"/><rect x="182" y="380" width="9" height="9" transform="rotate(0,186.5,384.5)"/><rect x="182" y="389" width="9" height="9" transform="rotate(0,186.5,393.5)"/><rect x="182" y="398" width="9" height="9" transform="rotate(0,186.5,402.5)"/><rect x="182" y="416" width="9" height="9" transform="rotate(0,186.5,420.5)"/><rect x="182" y="425" width="9" height="9" transform="rotate(0,186.5,429.5)"/><rect x="182" y="461" width="9" height="9" transform="rotate(0,186.5,465.5)"/><rect x="191" y="29" width="9" height="9" transform="rotate(0,195.5,33.5)"/><rect x="191" y="56" width="9" height="9" transform="rotate(0,195.5,60.5)"/><rect x="191" y="74" width="9" height="9" transform="rotate(0,195.5,78.5)"/><rect x="191" y="83" width="9" height="9" transform="rotate(0,195.5,87.5)"/><rect x="191" y="92" width="9" height="9" transform="rotate(0,195.5,96.5)"/><rect x="191" y="128" width="9" height="9" transform="rotate(0,195.5,132.5)"/><rect x="191" y="137" width="9" height="9" transform="rotate(0,195.5,141.5)"/><rect x="191" y="164" width="9" height="9" transform="rotate(0,195.5,168.5)"/><rect x="191" y="182" width="9" height="9" transform="rotate(0,195.5,186.5)"/><rect x="191" y="191" width="9" height="9" transform="rotate(0,195.5,195.5)"/><rect x="191" y="200" width="9" height="9" transform="rotate(0,195.5,204.5)"/><rect x="191" y="218" width="9" height="9" transform="rotate(0,195.5,222.5)"/><rect x="191" y="227" width="9" height="9" transform="rotate(0,195.5,231.5)"/><rect x="191" y="236" width="9" height="9" transform="rotate(0,195.5,240.5)"/><rect x="191" y="272" width="9" height="9" transform="rotate(0,195.5,276.5)"/><rect x="191" y="281" width="9" height="9" transform="rotate(0,195.5,285.5)"/><rect x="191" y="290" width="9" height="9" transform="rotate(0,195.5,294.5)"/><rect x="191" y="299" width="9" height="9" transform="rotate(0,195.5,303.5)"/><rect x="191" y="308" width="9" height="9" transform="rotate(0,195.5,312.5)"/><rect x="191" y="317" width="9" height="9" transform="rotate(0,195.5,321.5)"/><rect x="191" y="344" width="9" height="9" transform="rotate(0,195.5,348.5)"/><rect x="191" y="362" width="9" height="9" transform="rotate(0,195.5,366.5)"/><rect x="191" y="371" width="9" height="9" transform="rotate(0,195.5,375.5)"/><rect x="191" y="380" width="9" height="9" transform="rotate(0,195.5,384.5)"/><rect x="191" y="389" width="9" height="9" transform="rotate(0,195.5,393.5)"/><rect x="191" y="398" width="9" height="9" transform="rotate(0,195.5,402.5)"/><rect x="191" y="416" width="9" height="9" transform="rotate(0,195.5,420.5)"/><rect x="191" y="434" width="9" height="9" transform="rotate(0,195.5,438.5)"/><rect x="191" y="452" width="9" height="9" transform="rotate(0,195.5,456.5)"/><rect x="191" y="461" width="9" height="9" transform="rotate(0,195.5,465.5)"/><rect x="200" y="38" width="9" height="9" transform="rotate(0,204.5,42.5)"/><rect x="200" y="47" width="9" height="9" transform="rotate(0,204.5,51.5)"/><rect x="200" y="56" width="9" height="9" transform="rotate(0,204.5,60.5)"/><rect x="200" y="65" width="9" height="9" transform="rotate(0,204.5,69.5)"/><rect x="200" y="74" width="9" height="9" transform="rotate(0,204.5,78.5)"/><rect x="200" y="92" width="9" height="9" transform="rotate(0,204.5,96.5)"/><rect x="200" y="101" width="9" height="9" transform="rotate(0,204.5,105.5)"/><rect x="200" y="110" width="9" height="9" transform="rotate(0,204.5,114.5)"/><rect x="200" y="128" width="9" height="9" transform="rotate(0,204.5,132.5)"/><rect x="200" y="137" width="9" height="9" transform="rotate(0,204.5,141.5)"/><rect x="200" y="146" width="9" height="9" transform="rotate(0,204.5,150.5)"/><rect x="200" y="155" width="9" height="9" transform="rotate(0,204.5,159.5)"/><rect x="200" y="164" width="9" height="9" transform="rotate(0,204.5,168.5)"/><rect x="200" y="182" width="9" height="9" transform="rotate(0,204.5,186.5)"/><rect x="200" y="191" width="9" height="9" transform="rotate(0,204.5,195.5)"/><rect x="200" y="200" width="9" height="9" transform="rotate(0,204.5,204.5)"/><rect x="200" y="227" width="9" height="9" transform="rotate(0,204.5,231.5)"/><rect x="200" y="245" width="9" height="9" transform="rotate(0,204.5,249.5)"/><rect x="200" y="254" width="9" height="9" transform="rotate(0,204.5,258.5)"/><rect x="200" y="263" width="9" height="9" transform="rotate(0,204.5,267.5)"/><rect x="200" y="290" width="9" height="9" transform="rotate(0,204.5,294.5)"/><rect x="200" y="308" width="9" height="9" transform="rotate(0,204.5,312.5)"/><rect x="200" y="344" width="9" height="9" transform="rotate(0,204.5,348.5)"/><rect x="200" y="353" width="9" height="9" transform="rotate(0,204.5,357.5)"/><rect x="200" y="362" width="9" height="9" transform="rotate(0,204.5,366.5)"/><rect x="200" y="380" width="9" height="9" transform="rotate(0,204.5,384.5)"/><rect x="200" y="389" width="9" height="9" transform="rotate(0,204.5,393.5)"/><rect x="200" y="398" width="9" height="9" transform="rotate(0,204.5,402.5)"/><rect x="200" y="416" width="9" height="9" transform="rotate(0,204.5,420.5)"/><rect x="200" y="434" width="9" height="9" transform="rotate(0,204.5,438.5)"/><rect x="209" y="29" width="9" height="9" transform="rotate(0,213.5,33.5)"/><rect x="209" y="83" width="9" height="9" transform="rotate(0,213.5,87.5)"/><rect x="209" y="92" width="9" height="9" transform="rotate(0,213.5,96.5)"/><rect x="209" y="119" width="9" height="9" transform="rotate(0,213.5,123.5)"/><rect x="209" y="128" width="9" height="9" transform="rotate(0,213.5,132.5)"/><rect x="209" y="164" width="9" height="9" transform="rotate(0,213.5,168.5)"/><rect x="209" y="173" width="9" height="9" transform="rotate(0,213.5,177.5)"/><rect x="209" y="182" width="9" height="9" transform="rotate(0,213.5,186.5)"/><rect x="209" y="191" width="9" height="9" transform="rotate(0,213.5,195.5)"/><rect x="209" y="200" width="9" height="9" transform="rotate(0,213.5,204.5)"/><rect x="209" y="209" width="9" height="9" transform="rotate(0,213.5,213.5)"/><rect x="209" y="227" width="9" height="9" transform="rotate(0,213.5,231.5)"/><rect x="209" y="263" width="9" height="9" transform="rotate(0,213.5,267.5)"/><rect x="209" y="272" width="9" height="9" transform="rotate(0,213.5,276.5)"/><rect x="209" y="299" width="9" height="9" transform="rotate(0,213.5,303.5)"/><rect x="209" y="326" width="9" height="9" transform="rotate(0,213.5,330.5)"/><rect x="209" y="344" width="9" height="9" transform="rotate(0,213.5,348.5)"/><rect x="209" y="371" width="9" height="9" transform="rotate(0,213.5,375.5)"/><rect x="209" y="380" width="9" height="9" transform="rotate(0,213.5,384.5)"/><rect x="209" y="434" width="9" height="9" transform="rotate(0,213.5,438.5)"/><rect x="209" y="452" width="9" height="9" transform="rotate(0,213.5,456.5)"/><rect x="218" y="29" width="9" height="9" transform="rotate(0,222.5,33.5)"/><rect x="218" y="38" width="9" height="9" transform="rotate(0,222.5,42.5)"/><rect x="218" y="47" width="9" height="9" transform="rotate(0,222.5,51.5)"/><rect x="218" y="65" width="9" height="9" transform="rotate(0,222.5,69.5)"/><rect x="218" y="101" width="9" height="9" transform="rotate(0,222.5,105.5)"/><rect x="218" y="110" width="9" height="9" transform="rotate(0,222.5,114.5)"/><rect x="218" y="137" width="9" height="9" transform="rotate(0,222.5,141.5)"/><rect x="218" y="146" width="9" height="9" transform="rotate(0,222.5,150.5)"/><rect x="218" y="155" width="9" height="9" transform="rotate(0,222.5,159.5)"/><rect x="218" y="173" width="9" height="9" transform="rotate(0,222.5,177.5)"/><rect x="218" y="182" width="9" height="9" transform="rotate(0,222.5,186.5)"/><rect x="218" y="191" width="9" height="9" transform="rotate(0,222.5,195.5)"/><rect x="218" y="200" width="9" height="9" transform="rotate(0,222.5,204.5)"/><rect x="218" y="254" width="9" height="9" transform="rotate(0,222.5,258.5)"/><rect x="218" y="263" width="9" height="9" transform="rotate(0,222.5,267.5)"/><rect x="218" y="272" width="9" height="9" transform="rotate(0,222.5,276.5)"/><rect x="218" y="290" width="9" height="9" transform="rotate(0,222.5,294.5)"/><rect x="218" y="299" width="9" height="9" transform="rotate(0,222.5,303.5)"/><rect x="218" y="308" width="9" height="9" transform="rotate(0,222.5,312.5)"/><rect x="218" y="353" width="9" height="9" transform="rotate(0,222.5,357.5)"/><rect x="218" y="398" width="9" height="9" transform="rotate(0,222.5,402.5)"/><rect x="218" y="407" width="9" height="9" transform="rotate(0,222.5,411.5)"/><rect x="227" y="29" width="9" height="9" transform="rotate(0,231.5,33.5)"/><rect x="227" y="38" width="9" height="9" transform="rotate(0,231.5,42.5)"/><rect x="227" y="47" width="9" height="9" transform="rotate(0,231.5,51.5)"/><rect x="227" y="56" width="9" height="9" transform="rotate(0,231.5,60.5)"/><rect x="227" y="65" width="9" height="9" transform="rotate(0,231.5,69.5)"/><rect x="227" y="74" width="9" height="9" transform="rotate(0,231.5,78.5)"/><rect x="227" y="83" width="9" height="9" transform="rotate(0,231.5,87.5)"/><rect x="227" y="92" width="9" height="9" transform="rotate(0,231.5,96.5)"/><rect x="227" y="101" width="9" height="9" transform="rotate(0,231.5,105.5)"/><rect x="227" y="110" width="9" height="9" transform="rotate(0,231.5,114.5)"/><rect x="227" y="128" width="9" height="9" transform="rotate(0,231.5,132.5)"/><rect x="227" y="137" width="9" height="9" transform="rotate(0,231.5,141.5)"/><rect x="227" y="164" width="9" height="9" transform="rotate(0,231.5,168.5)"/><rect x="227" y="173" width="9" height="9" transform="rotate(0,231.5,177.5)"/><rect x="227" y="191" width="9" height="9" transform="rotate(0,231.5,195.5)"/><rect x="227" y="209" width="9" height="9" transform="rotate(0,231.5,213.5)"/><rect x="227" y="227" width="9" height="9" transform="rotate(0,231.5,231.5)"/><rect x="227" y="236" width="9" height="9" transform="rotate(0,231.5,240.5)"/><rect x="227" y="245" width="9" height="9" transform="rotate(0,231.5,249.5)"/><rect x="227" y="254" width="9" height="9" transform="rotate(0,231.5,258.5)"/><rect x="227" y="263" width="9" height="9" transform="rotate(0,231.5,267.5)"/><rect x="227" y="272" width="9" height="9" transform="rotate(0,231.5,276.5)"/><rect x="227" y="281" width="9" height="9" transform="rotate(0,231.5,285.5)"/><rect x="227" y="290" width="9" height="9" transform="rotate(0,231.5,294.5)"/><rect x="227" y="299" width="9" height="9" transform="rotate(0,231.5,303.5)"/><rect x="227" y="317" width="9" height="9" transform="rotate(0,231.5,321.5)"/><rect x="227" y="326" width="9" height="9" transform="rotate(0,231.5,330.5)"/><rect x="227" y="335" width="9" height="9" transform="rotate(0,231.5,339.5)"/><rect x="227" y="380" width="9" height="9" transform="rotate(0,231.5,384.5)"/><rect x="227" y="389" width="9" height="9" transform="rotate(0,231.5,393.5)"/><rect x="227" y="398" width="9" height="9" transform="rotate(0,231.5,402.5)"/><rect x="227" y="407" width="9" height="9" transform="rotate(0,231.5,411.5)"/><rect x="227" y="416" width="9" height="9" transform="rotate(0,231.5,420.5)"/><rect x="227" y="425" width="9" height="9" transform="rotate(0,231.5,429.5)"/><rect x="236" y="56" width="9" height="9" transform="rotate(0,240.5,60.5)"/><rect x="236" y="65" width="9" height="9" transform="rotate(0,240.5,69.5)"/><rect x="236" y="101" width="9" height="9" transform="rotate(0,240.5,105.5)"/><rect x="236" y="110" width="9" height="9" transform="rotate(0,240.5,114.5)"/><rect x="236" y="137" width="9" height="9" transform="rotate(0,240.5,141.5)"/><rect x="236" y="146" width="9" height="9" transform="rotate(0,240.5,150.5)"/><rect x="236" y="164" width="9" height="9" transform="rotate(0,240.5,168.5)"/><rect x="236" y="191" width="9" height="9" transform="rotate(0,240.5,195.5)"/><rect x="236" y="200" width="9" height="9" transform="rotate(0,240.5,204.5)"/><rect x="236" y="227" width="9" height="9" transform="rotate(0,240.5,231.5)"/><rect x="236" y="263" width="9" height="9" transform="rotate(0,240.5,267.5)"/><rect x="236" y="281" width="9" height="9" transform="rotate(0,240.5,285.5)"/><rect x="236" y="290" width="9" height="9" transform="rotate(0,240.5,294.5)"/><rect x="236" y="308" width="9" height="9" transform="rotate(0,240.5,312.5)"/><rect x="236" y="317" width="9" height="9" transform="rotate(0,240.5,321.5)"/><rect x="236" y="326" width="9" height="9" transform="rotate(0,240.5,330.5)"/><rect x="236" y="353" width="9" height="9" transform="rotate(0,240.5,357.5)"/><rect x="236" y="371" width="9" height="9" transform="rotate(0,240.5,375.5)"/><rect x="236" y="389" width="9" height="9" transform="rotate(0,240.5,393.5)"/><rect x="236" y="425" width="9" height="9" transform="rotate(0,240.5,429.5)"/><rect x="236" y="434" width="9" height="9" transform="rotate(0,240.5,438.5)"/><rect x="236" y="443" width="9" height="9" transform="rotate(0,240.5,447.5)"/><rect x="236" y="452" width="9" height="9" transform="rotate(0,240.5,456.5)"/><rect x="236" y="461" width="9" height="9" transform="rotate(0,240.5,465.5)"/><rect x="245" y="29" width="9" height="9" transform="rotate(0,249.5,33.5)"/><rect x="245" y="38" width="9" height="9" transform="rotate(0,249.5,42.5)"/><rect x="245" y="47" width="9" height="9" transform="rotate(0,249.5,51.5)"/><rect x="245" y="65" width="9" height="9" transform="rotate(0,249.5,69.5)"/><rect x="245" y="83" width="9" height="9" transform="rotate(0,249.5,87.5)"/><rect x="245" y="101" width="9" height="9" transform="rotate(0,249.5,105.5)"/><rect x="245" y="110" width="9" height="9" transform="rotate(0,249.5,114.5)"/><rect x="245" y="155" width="9" height="9" transform="rotate(0,249.5,159.5)"/><rect x="245" y="173" width="9" height="9" transform="rotate(0,249.5,177.5)"/><rect x="245" y="182" width="9" height="9" transform="rotate(0,249.5,186.5)"/><rect x="245" y="191" width="9" height="9" transform="rotate(0,249.5,195.5)"/><rect x="245" y="200" width="9" height="9" transform="rotate(0,249.5,204.5)"/><rect x="245" y="209" width="9" height="9" transform="rotate(0,249.5,213.5)"/><rect x="245" y="218" width="9" height="9" transform="rotate(0,249.5,222.5)"/><rect x="245" y="227" width="9" height="9" transform="rotate(0,249.5,231.5)"/><rect x="245" y="245" width="9" height="9" transform="rotate(0,249.5,249.5)"/><rect x="245" y="263" width="9" height="9" transform="rotate(0,249.5,267.5)"/><rect x="245" y="281" width="9" height="9" transform="rotate(0,249.5,285.5)"/><rect x="245" y="290" width="9" height="9" transform="rotate(0,249.5,294.5)"/><rect x="245" y="335" width="9" height="9" transform="rotate(0,249.5,339.5)"/><rect x="245" y="344" width="9" height="9" transform="rotate(0,249.5,348.5)"/><rect x="245" y="353" width="9" height="9" transform="rotate(0,249.5,357.5)"/><rect x="245" y="362" width="9" height="9" transform="rotate(0,249.5,366.5)"/><rect x="245" y="371" width="9" height="9" transform="rotate(0,249.5,375.5)"/><rect x="245" y="389" width="9" height="9" transform="rotate(0,249.5,393.5)"/><rect x="245" y="407" width="9" height="9" transform="rotate(0,249.5,411.5)"/><rect x="245" y="425" width="9" height="9" transform="rotate(0,249.5,429.5)"/><rect x="245" y="434" width="9" height="9" transform="rotate(0,249.5,438.5)"/><rect x="245" y="443" width="9" height="9" transform="rotate(0,249.5,447.5)"/><rect x="245" y="461" width="9" height="9" transform="rotate(0,249.5,465.5)"/><rect x="254" y="29" width="9" height="9" transform="rotate(0,258.5,33.5)"/><rect x="254" y="47" width="9" height="9" transform="rotate(0,258.5,51.5)"/><rect x="254" y="65" width="9" height="9" transform="rotate(0,258.5,69.5)"/><rect x="254" y="101" width="9" height="9" transform="rotate(0,258.5,105.5)"/><rect x="254" y="119" width="9" height="9" transform="rotate(0,258.5,123.5)"/><rect x="254" y="146" width="9" height="9" transform="rotate(0,258.5,150.5)"/><rect x="254" y="155" width="9" height="9" transform="rotate(0,258.5,159.5)"/><rect x="254" y="164" width="9" height="9" transform="rotate(0,258.5,168.5)"/><rect x="254" y="173" width="9" height="9" transform="rotate(0,258.5,177.5)"/><rect x="254" y="182" width="9" height="9" transform="rotate(0,258.5,186.5)"/><rect x="254" y="191" width="9" height="9" transform="rotate(0,258.5,195.5)"/><rect x="254" y="218" width="9" height="9" transform="rotate(0,258.5,222.5)"/><rect x="254" y="227" width="9" height="9" transform="rotate(0,258.5,231.5)"/><rect x="254" y="263" width="9" height="9" transform="rotate(0,258.5,267.5)"/><rect x="254" y="281" width="9" height="9" transform="rotate(0,258.5,285.5)"/><rect x="254" y="308" width="9" height="9" transform="rotate(0,258.5,312.5)"/><rect x="254" y="317" width="9" height="9" transform="rotate(0,258.5,321.5)"/><rect x="254" y="326" width="9" height="9" transform="rotate(0,258.5,330.5)"/><rect x="254" y="344" width="9" height="9" transform="rotate(0,258.5,348.5)"/><rect x="254" y="353" width="9" height="9" transform="rotate(0,258.5,357.5)"/><rect x="254" y="362" width="9" height="9" transform="rotate(0,258.5,366.5)"/><rect x="254" y="371" width="9" height="9" transform="rotate(0,258.5,375.5)"/><rect x="254" y="389" width="9" height="9" transform="rotate(0,258.5,393.5)"/><rect x="254" y="425" width="9" height="9" transform="rotate(0,258.5,429.5)"/><rect x="254" y="434" width="9" height="9" transform="rotate(0,258.5,438.5)"/><rect x="254" y="443" width="9" height="9" transform="rotate(0,258.5,447.5)"/><rect x="254" y="452" width="9" height="9" transform="rotate(0,258.5,456.5)"/><rect x="254" y="461" width="9" height="9" transform="rotate(0,258.5,465.5)"/><rect x="263" y="29" width="9" height="9" transform="rotate(0,267.5,33.5)"/><rect x="263" y="38" width="9" height="9" transform="rotate(0,267.5,42.5)"/><rect x="263" y="65" width="9" height="9" transform="rotate(0,267.5,69.5)"/><rect x="263" y="74" width="9" height="9" transform="rotate(0,267.5,78.5)"/><rect x="263" y="83" width="9" height="9" transform="rotate(0,267.5,87.5)"/><rect x="263" y="92" width="9" height="9" transform="rotate(0,267.5,96.5)"/><rect x="263" y="101" width="9" height="9" transform="rotate(0,267.5,105.5)"/><rect x="263" y="110" width="9" height="9" transform="rotate(0,267.5,114.5)"/><rect x="263" y="119" width="9" height="9" transform="rotate(0,267.5,123.5)"/><rect x="263" y="137" width="9" height="9" transform="rotate(0,267.5,141.5)"/><rect x="263" y="173" width="9" height="9" transform="rotate(0,267.5,177.5)"/><rect x="263" y="182" width="9" height="9" transform="rotate(0,267.5,186.5)"/><rect x="263" y="191" width="9" height="9" transform="rotate(0,267.5,195.5)"/><rect x="263" y="200" width="9" height="9" transform="rotate(0,267.5,204.5)"/><rect x="263" y="218" width="9" height="9" transform="rotate(0,267.5,222.5)"/><rect x="263" y="227" width="9" height="9" transform="rotate(0,267.5,231.5)"/><rect x="263" y="236" width="9" height="9" transform="rotate(0,267.5,240.5)"/><rect x="263" y="245" width="9" height="9" transform="rotate(0,267.5,249.5)"/><rect x="263" y="254" width="9" height="9" transform="rotate(0,267.5,258.5)"/><rect x="263" y="263" width="9" height="9" transform="rotate(0,267.5,267.5)"/><rect x="263" y="272" width="9" height="9" transform="rotate(0,267.5,276.5)"/><rect x="263" y="299" width="9" height="9" transform="rotate(0,267.5,303.5)"/><rect x="263" y="326" width="9" height="9" transform="rotate(0,267.5,330.5)"/><rect x="263" y="344" width="9" height="9" transform="rotate(0,267.5,348.5)"/><rect x="263" y="353" width="9" height="9" transform="rotate(0,267.5,357.5)"/><rect x="263" y="362" width="9" height="9" transform="rotate(0,267.5,366.5)"/><rect x="263" y="371" width="9" height="9" transform="rotate(0,267.5,375.5)"/><rect x="263" y="389" width="9" height="9" transform="rotate(0,267.5,393.5)"/><rect x="263" y="398" width="9" height="9" transform="rotate(0,267.5,402.5)"/><rect x="263" y="407" width="9" height="9" transform="rotate(0,267.5,411.5)"/><rect x="263" y="416" width="9" height="9" transform="rotate(0,267.5,420.5)"/><rect x="263" y="425" width="9" height="9" transform="rotate(0,267.5,429.5)"/><rect x="263" y="434" width="9" height="9" transform="rotate(0,267.5,438.5)"/><rect x="263" y="452" width="9" height="9" transform="rotate(0,267.5,456.5)"/><rect x="272" y="29" width="9" height="9" transform="rotate(0,276.5,33.5)"/><rect x="272" y="56" width="9" height="9" transform="rotate(0,276.5,60.5)"/><rect x="272" y="65" width="9" height="9" transform="rotate(0,276.5,69.5)"/><rect x="272" y="101" width="9" height="9" transform="rotate(0,276.5,105.5)"/><rect x="272" y="119" width="9" height="9" transform="rotate(0,276.5,123.5)"/><rect x="272" y="128" width="9" height="9" transform="rotate(0,276.5,132.5)"/><rect x="272" y="146" width="9" height="9" transform="rotate(0,276.5,150.5)"/><rect x="272" y="155" width="9" height="9" transform="rotate(0,276.5,159.5)"/><rect x="272" y="182" width="9" height="9" transform="rotate(0,276.5,186.5)"/><rect x="272" y="191" width="9" height="9" transform="rotate(0,276.5,195.5)"/><rect x="272" y="209" width="9" height="9" transform="rotate(0,276.5,213.5)"/><rect x="272" y="218" width="9" height="9" transform="rotate(0,276.5,222.5)"/><rect x="272" y="227" width="9" height="9" transform="rotate(0,276.5,231.5)"/><rect x="272" y="245" width="9" height="9" transform="rotate(0,276.5,249.5)"/><rect x="272" y="263" width="9" height="9" transform="rotate(0,276.5,267.5)"/><rect x="272" y="272" width="9" height="9" transform="rotate(0,276.5,276.5)"/><rect x="272" y="281" width="9" height="9" transform="rotate(0,276.5,285.5)"/><rect x="272" y="299" width="9" height="9" transform="rotate(0,276.5,303.5)"/><rect x="272" y="317" width="9" height="9" transform="rotate(0,276.5,321.5)"/><rect x="272" y="362" width="9" height="9" transform="rotate(0,276.5,366.5)"/><rect x="272" y="389" width="9" height="9" transform="rotate(0,276.5,393.5)"/><rect x="272" y="398" width="9" height="9" transform="rotate(0,276.5,402.5)"/><rect x="272" y="416" width="9" height="9" transform="rotate(0,276.5,420.5)"/><rect x="272" y="452" width="9" height="9" transform="rotate(0,276.5,456.5)"/><rect x="281" y="29" width="9" height="9" transform="rotate(0,285.5,33.5)"/><rect x="281" y="65" width="9" height="9" transform="rotate(0,285.5,69.5)"/><rect x="281" y="74" width="9" height="9" transform="rotate(0,285.5,78.5)"/><rect x="281" y="83" width="9" height="9" transform="rotate(0,285.5,87.5)"/><rect x="281" y="101" width="9" height="9" transform="rotate(0,285.5,105.5)"/><rect x="281" y="110" width="9" height="9" transform="rotate(0,285.5,114.5)"/><rect x="281" y="119" width="9" height="9" transform="rotate(0,285.5,123.5)"/><rect x="281" y="146" width="9" height="9" transform="rotate(0,285.5,150.5)"/><rect x="281" y="155" width="9" height="9" transform="rotate(0,285.5,159.5)"/><rect x="281" y="173" width="9" height="9" transform="rotate(0,285.5,177.5)"/><rect x="281" y="182" width="9" height="9" transform="rotate(0,285.5,186.5)"/><rect x="281" y="191" width="9" height="9" transform="rotate(0,285.5,195.5)"/><rect x="281" y="236" width="9" height="9" transform="rotate(0,285.5,240.5)"/><rect x="281" y="263" width="9" height="9" transform="rotate(0,285.5,267.5)"/><rect x="281" y="272" width="9" height="9" transform="rotate(0,285.5,276.5)"/><rect x="281" y="290" width="9" height="9" transform="rotate(0,285.5,294.5)"/><rect x="281" y="308" width="9" height="9" transform="rotate(0,285.5,312.5)"/><rect x="281" y="317" width="9" height="9" transform="rotate(0,285.5,321.5)"/><rect x="281" y="335" width="9" height="9" transform="rotate(0,285.5,339.5)"/><rect x="281" y="371" width="9" height="9" transform="rotate(0,285.5,375.5)"/><rect x="281" y="389" width="9" height="9" transform="rotate(0,285.5,393.5)"/><rect x="281" y="407" width="9" height="9" transform="rotate(0,285.5,411.5)"/><rect x="281" y="434" width="9" height="9" transform="rotate(0,285.5,438.5)"/><rect x="281" y="443" width="9" height="9" transform="rotate(0,285.5,447.5)"/><rect x="281" y="452" width="9" height="9" transform="rotate(0,285.5,456.5)"/><rect x="290" y="38" width="9" height="9" transform="rotate(0,294.5,42.5)"/><rect x="290" y="101" width="9" height="9" transform="rotate(0,294.5,105.5)"/><rect x="290" y="110" width="9" height="9" transform="rotate(0,294.5,114.5)"/><rect x="290" y="137" width="9" height="9" transform="rotate(0,294.5,141.5)"/><rect x="290" y="146" width="9" height="9" transform="rotate(0,294.5,150.5)"/><rect x="290" y="155" width="9" height="9" transform="rotate(0,294.5,159.5)"/><rect x="290" y="173" width="9" height="9" transform="rotate(0,294.5,177.5)"/><rect x="290" y="182" width="9" height="9" transform="rotate(0,294.5,186.5)"/><rect x="290" y="200" width="9" height="9" transform="rotate(0,294.5,204.5)"/><rect x="290" y="209" width="9" height="9" transform="rotate(0,294.5,213.5)"/><rect x="290" y="236" width="9" height="9" transform="rotate(0,294.5,240.5)"/><rect x="290" y="245" width="9" height="9" transform="rotate(0,294.5,249.5)"/><rect x="290" y="254" width="9" height="9" transform="rotate(0,294.5,258.5)"/><rect x="290" y="308" width="9" height="9" transform="rotate(0,294.5,312.5)"/><rect x="290" y="335" width="9" height="9" transform="rotate(0,294.5,339.5)"/><rect x="290" y="344" width="9" height="9" transform="rotate(0,294.5,348.5)"/><rect x="290" y="362" width="9" height="9" transform="rotate(0,294.5,366.5)"/><rect x="290" y="380" width="9" height="9" transform="rotate(0,294.5,384.5)"/><rect x="290" y="407" width="9" height="9" transform="rotate(0,294.5,411.5)"/><rect x="290" y="443" width="9" height="9" transform="rotate(0,294.5,447.5)"/><rect x="290" y="461" width="9" height="9" transform="rotate(0,294.5,465.5)"/><rect x="299" y="29" width="9" height="9" transform="rotate(0,303.5,33.5)"/><rect x="299" y="38" width="9" height="9" transform="rotate(0,303.5,42.5)"/><rect x="299" y="47" width="9" height="9" transform="rotate(0,303.5,51.5)"/><rect x="299" y="83" width="9" height="9" transform="rotate(0,303.5,87.5)"/><rect x="299" y="110" width="9" height="9" transform="rotate(0,303.5,114.5)"/><rect x="299" y="119" width="9" height="9" transform="rotate(0,303.5,123.5)"/><rect x="299" y="173" width="9" height="9" transform="rotate(0,303.5,177.5)"/><rect x="299" y="182" width="9" height="9" transform="rotate(0,303.5,186.5)"/><rect x="299" y="209" width="9" height="9" transform="rotate(0,303.5,213.5)"/><rect x="299" y="245" width="9" height="9" transform="rotate(0,303.5,249.5)"/><rect x="299" y="254" width="9" height="9" transform="rotate(0,303.5,258.5)"/><rect x="299" y="263" width="9" height="9" transform="rotate(0,303.5,267.5)"/><rect x="299" y="281" width="9" height="9" transform="rotate(0,303.5,285.5)"/><rect x="299" y="308" width="9" height="9" transform="rotate(0,303.5,312.5)"/><rect x="299" y="326" width="9" height="9" transform="rotate(0,303.5,330.5)"/><rect x="299" y="335" width="9" height="9" transform="rotate(0,303.5,339.5)"/><rect x="299" y="353" width="9" height="9" transform="rotate(0,303.5,357.5)"/><rect x="299" y="371" width="9" height="9" transform="rotate(0,303.5,375.5)"/><rect x="299" y="398" width="9" height="9" transform="rotate(0,303.5,402.5)"/><rect x="299" y="407" width="9" height="9" transform="rotate(0,303.5,411.5)"/><rect x="299" y="416" width="9" height="9" transform="rotate(0,303.5,420.5)"/><rect x="299" y="443" width="9" height="9" transform="rotate(0,303.5,447.5)"/><rect x="299" y="452" width="9" height="9" transform="rotate(0,303.5,456.5)"/><rect x="299" y="461" width="9" height="9" transform="rotate(0,303.5,465.5)"/><rect x="308" y="29" width="9" height="9" transform="rotate(0,312.5,33.5)"/><rect x="308" y="38" width="9" height="9" transform="rotate(0,312.5,42.5)"/><rect x="308" y="65" width="9" height="9" transform="rotate(0,312.5,69.5)"/><rect x="308" y="101" width="9" height="9" transform="rotate(0,312.5,105.5)"/><rect x="308" y="110" width="9" height="9" transform="rotate(0,312.5,114.5)"/><rect x="308" y="128" width="9" height="9" transform="rotate(0,312.5,132.5)"/><rect x="308" y="191" width="9" height="9" transform="rotate(0,312.5,195.5)"/><rect x="308" y="218" width="9" height="9" transform="rotate(0,312.5,222.5)"/><rect x="308" y="272" width="9" height="9" transform="rotate(0,312.5,276.5)"/><rect x="308" y="308" width="9" height="9" transform="rotate(0,312.5,312.5)"/><rect x="308" y="317" width="9" height="9" transform="rotate(0,312.5,321.5)"/><rect x="308" y="344" width="9" height="9" transform="rotate(0,312.5,348.5)"/><rect x="308" y="362" width="9" height="9" transform="rotate(0,312.5,366.5)"/><rect x="308" y="380" width="9" height="9" transform="rotate(0,312.5,384.5)"/><rect x="308" y="389" width="9" height="9" transform="rotate(0,312.5,393.5)"/><rect x="308" y="398" width="9" height="9" transform="rotate(0,312.5,402.5)"/><rect x="308" y="407" width="9" height="9" transform="rotate(0,312.5,411.5)"/><rect x="308" y="416" width="9" height="9" transform="rotate(0,312.5,420.5)"/><rect x="308" y="425" width="9" height="9" transform="rotate(0,312.5,429.5)"/><rect x="308" y="434" width="9" height="9" transform="rotate(0,312.5,438.5)"/><rect x="308" y="461" width="9" height="9" transform="rotate(0,312.5,465.5)"/><rect x="317" y="29" width="9" height="9" transform="rotate(0,321.5,33.5)"/><rect x="317" y="38" width="9" height="9" transform="rotate(0,321.5,42.5)"/><rect x="317" y="74" width="9" height="9" transform="rotate(0,321.5,78.5)"/><rect x="317" y="83" width="9" height="9" transform="rotate(0,321.5,87.5)"/><rect x="317" y="92" width="9" height="9" transform="rotate(0,321.5,96.5)"/><rect x="317" y="155" width="9" height="9" transform="rotate(0,321.5,159.5)"/><rect x="317" y="164" width="9" height="9" transform="rotate(0,321.5,168.5)"/><rect x="317" y="200" width="9" height="9" transform="rotate(0,321.5,204.5)"/><rect x="317" y="227" width="9" height="9" transform="rotate(0,321.5,231.5)"/><rect x="317" y="281" width="9" height="9" transform="rotate(0,321.5,285.5)"/><rect x="317" y="308" width="9" height="9" transform="rotate(0,321.5,312.5)"/><rect x="317" y="326" width="9" height="9" transform="rotate(0,321.5,330.5)"/><rect x="317" y="371" width="9" height="9" transform="rotate(0,321.5,375.5)"/><rect x="317" y="389" width="9" height="9" transform="rotate(0,321.5,393.5)"/><rect x="317" y="398" width="9" height="9" transform="rotate(0,321.5,402.5)"/><rect x="317" y="407" width="9" height="9" transform="rotate(0,321.5,411.5)"/><rect x="317" y="416" width="9" height="9" transform="rotate(0,321.5,420.5)"/><rect x="317" y="425" width="9" height="9" transform="rotate(0,321.5,429.5)"/><rect x="317" y="434" width="9" height="9" transform="rotate(0,321.5,438.5)"/><rect x="317" y="452" width="9" height="9" transform="rotate(0,321.5,456.5)"/><rect x="317" y="461" width="9" height="9" transform="rotate(0,321.5,465.5)"/><rect x="326" y="29" width="9" height="9" transform="rotate(0,330.5,33.5)"/><rect x="326" y="38" width="9" height="9" transform="rotate(0,330.5,42.5)"/><rect x="326" y="47" width="9" height="9" transform="rotate(0,330.5,51.5)"/><rect x="326" y="56" width="9" height="9" transform="rotate(0,330.5,60.5)"/><rect x="326" y="101" width="9" height="9" transform="rotate(0,330.5,105.5)"/><rect x="326" y="110" width="9" height="9" transform="rotate(0,330.5,114.5)"/><rect x="326" y="119" width="9" height="9" transform="rotate(0,330.5,123.5)"/><rect x="326" y="128" width="9" height="9" transform="rotate(0,330.5,132.5)"/><rect x="326" y="137" width="9" height="9" transform="rotate(0,330.5,141.5)"/><rect x="326" y="155" width="9" height="9" transform="rotate(0,330.5,159.5)"/><rect x="326" y="173" width="9" height="9" transform="rotate(0,330.5,177.5)"/><rect x="326" y="245" width="9" height="9" transform="rotate(0,330.5,249.5)"/><rect x="326" y="263" width="9" height="9" transform="rotate(0,330.5,267.5)"/><rect x="326" y="290" width="9" height="9" transform="rotate(0,330.5,294.5)"/><rect x="326" y="299" width="9" height="9" transform="rotate(0,330.5,303.5)"/><rect x="326" y="308" width="9" height="9" transform="rotate(0,330.5,312.5)"/><rect x="326" y="344" width="9" height="9" transform="rotate(0,330.5,348.5)"/><rect x="326" y="362" width="9" height="9" transform="rotate(0,330.5,366.5)"/><rect x="326" y="389" width="9" height="9" transform="rotate(0,330.5,393.5)"/><rect x="326" y="416" width="9" height="9" transform="rotate(0,330.5,420.5)"/><rect x="326" y="434" width="9" height="9" transform="rotate(0,330.5,438.5)"/><rect x="335" y="38" width="9" height="9" transform="rotate(0,339.5,42.5)"/><rect x="335" y="56" width="9" height="9" transform="rotate(0,339.5,60.5)"/><rect x="335" y="65" width="9" height="9" transform="rotate(0,339.5,69.5)"/><rect x="335" y="83" width="9" height="9" transform="rotate(0,339.5,87.5)"/><rect x="335" y="92" width="9" height="9" transform="rotate(0,339.5,96.5)"/><rect x="335" y="110" width="9" height="9" transform="rotate(0,339.5,114.5)"/><rect x="335" y="128" width="9" height="9" transform="rotate(0,339.5,132.5)"/><rect x="335" y="146" width="9" height="9" transform="rotate(0,339.5,150.5)"/><rect x="335" y="164" width="9" height="9" transform="rotate(0,339.5,168.5)"/><rect x="335" y="173" width="9" height="9" transform="rotate(0,339.5,177.5)"/><rect x="335" y="182" width="9" height="9" transform="rotate(0,339.5,186.5)"/><rect x="335" y="191" width="9" height="9" transform="rotate(0,339.5,195.5)"/><rect x="335" y="200" width="9" height="9" transform="rotate(0,339.5,204.5)"/><rect x="335" y="218" width="9" height="9" transform="rotate(0,339.5,222.5)"/><rect x="335" y="227" width="9" height="9" transform="rotate(0,339.5,231.5)"/><rect x="335" y="254" width="9" height="9" transform="rotate(0,339.5,258.5)"/><rect x="335" y="263" width="9" height="9" transform="rotate(0,339.5,267.5)"/><rect x="335" y="290" width="9" height="9" transform="rotate(0,339.5,294.5)"/><rect x="335" y="299" width="9" height="9" transform="rotate(0,339.5,303.5)"/><rect x="335" y="317" width="9" height="9" transform="rotate(0,339.5,321.5)"/><rect x="335" y="335" width="9" height="9" transform="rotate(0,339.5,339.5)"/><rect x="335" y="344" width="9" height="9" transform="rotate(0,339.5,348.5)"/><rect x="335" y="353" width="9" height="9" transform="rotate(0,339.5,357.5)"/><rect x="335" y="380" width="9" height="9" transform="rotate(0,339.5,384.5)"/><rect x="335" y="434" width="9" height="9" transform="rotate(0,339.5,438.5)"/><rect x="335" y="443" width="9" height="9" transform="rotate(0,339.5,447.5)"/><rect x="344" y="38" width="9" height="9" transform="rotate(0,348.5,42.5)"/><rect x="344" y="47" width="9" height="9" transform="rotate(0,348.5,51.5)"/><rect x="344" y="56" width="9" height="9" transform="rotate(0,348.5,60.5)"/><rect x="344" y="65" width="9" height="9" transform="rotate(0,348.5,69.5)"/><rect x="344" y="110" width="9" height="9" transform="rotate(0,348.5,114.5)"/><rect x="344" y="119" width="9" height="9" transform="rotate(0,348.5,123.5)"/><rect x="344" y="128" width="9" height="9" transform="rotate(0,348.5,132.5)"/><rect x="344" y="155" width="9" height="9" transform="rotate(0,348.5,159.5)"/><rect x="344" y="164" width="9" height="9" transform="rotate(0,348.5,168.5)"/><rect x="344" y="173" width="9" height="9" transform="rotate(0,348.5,177.5)"/><rect x="344" y="182" width="9" height="9" transform="rotate(0,348.5,186.5)"/><rect x="344" y="218" width="9" height="9" transform="rotate(0,348.5,222.5)"/><rect x="344" y="227" width="9" height="9" transform="rotate(0,348.5,231.5)"/><rect x="344" y="254" width="9" height="9" transform="rotate(0,348.5,258.5)"/><rect x="344" y="263" width="9" height="9" transform="rotate(0,348.5,267.5)"/><rect x="344" y="308" width="9" height="9" transform="rotate(0,348.5,312.5)"/><rect x="344" y="317" width="9" height="9" transform="rotate(0,348.5,321.5)"/><rect x="344" y="326" width="9" height="9" transform="rotate(0,348.5,330.5)"/><rect x="344" y="335" width="9" height="9" transform="rotate(0,348.5,339.5)"/><rect x="344" y="353" width="9" height="9" transform="rotate(0,348.5,357.5)"/><rect x="344" y="380" width="9" height="9" transform="rotate(0,348.5,384.5)"/><rect x="344" y="407" width="9" height="9" transform="rotate(0,348.5,411.5)"/><rect x="344" y="425" width="9" height="9" transform="rotate(0,348.5,429.5)"/><rect x="344" y="443" width="9" height="9" transform="rotate(0,348.5,447.5)"/><rect x="353" y="29" width="9" height="9" transform="rotate(0,357.5,33.5)"/><rect x="353" y="47" width="9" height="9" transform="rotate(0,357.5,51.5)"/><rect x="353" y="56" width="9" height="9" transform="rotate(0,357.5,60.5)"/><rect x="353" y="65" width="9" height="9" transform="rotate(0,357.5,69.5)"/><rect x="353" y="83" width="9" height="9" transform="rotate(0,357.5,87.5)"/><rect x="353" y="101" width="9" height="9" transform="rotate(0,357.5,105.5)"/><rect x="353" y="146" width="9" height="9" transform="rotate(0,357.5,150.5)"/><rect x="353" y="164" width="9" height="9" transform="rotate(0,357.5,168.5)"/><rect x="353" y="209" width="9" height="9" transform="rotate(0,357.5,213.5)"/><rect x="353" y="272" width="9" height="9" transform="rotate(0,357.5,276.5)"/><rect x="353" y="299" width="9" height="9" transform="rotate(0,357.5,303.5)"/><rect x="353" y="344" width="9" height="9" transform="rotate(0,357.5,348.5)"/><rect x="353" y="353" width="9" height="9" transform="rotate(0,357.5,357.5)"/><rect x="353" y="380" width="9" height="9" transform="rotate(0,357.5,384.5)"/><rect x="353" y="398" width="9" height="9" transform="rotate(0,357.5,402.5)"/><rect x="353" y="416" width="9" height="9" transform="rotate(0,357.5,420.5)"/><rect x="353" y="425" width="9" height="9" transform="rotate(0,357.5,429.5)"/><rect x="353" y="434" width="9" height="9" transform="rotate(0,357.5,438.5)"/><rect x="353" y="443" width="9" height="9" transform="rotate(0,357.5,447.5)"/><rect x="353" y="452" width="9" height="9" transform="rotate(0,357.5,456.5)"/><rect x="353" y="461" width="9" height="9" transform="rotate(0,357.5,465.5)"/><rect x="362" y="38" width="9" height="9" transform="rotate(0,366.5,42.5)"/><rect x="362" y="56" width="9" height="9" transform="rotate(0,366.5,60.5)"/><rect x="362" y="74" width="9" height="9" transform="rotate(0,366.5,78.5)"/><rect x="362" y="119" width="9" height="9" transform="rotate(0,366.5,123.5)"/><rect x="362" y="137" width="9" height="9" transform="rotate(0,366.5,141.5)"/><rect x="362" y="164" width="9" height="9" transform="rotate(0,366.5,168.5)"/><rect x="362" y="182" width="9" height="9" transform="rotate(0,366.5,186.5)"/><rect x="362" y="209" width="9" height="9" transform="rotate(0,366.5,213.5)"/><rect x="362" y="218" width="9" height="9" transform="rotate(0,366.5,222.5)"/><rect x="362" y="227" width="9" height="9" transform="rotate(0,366.5,231.5)"/><rect x="362" y="236" width="9" height="9" transform="rotate(0,366.5,240.5)"/><rect x="362" y="245" width="9" height="9" transform="rotate(0,366.5,249.5)"/><rect x="362" y="254" width="9" height="9" transform="rotate(0,366.5,258.5)"/><rect x="362" y="263" width="9" height="9" transform="rotate(0,366.5,267.5)"/><rect x="362" y="326" width="9" height="9" transform="rotate(0,366.5,330.5)"/><rect x="362" y="362" width="9" height="9" transform="rotate(0,366.5,366.5)"/><rect x="362" y="371" width="9" height="9" transform="rotate(0,366.5,375.5)"/><rect x="362" y="380" width="9" height="9" transform="rotate(0,366.5,384.5)"/><rect x="362" y="407" width="9" height="9" transform="rotate(0,366.5,411.5)"/><rect x="362" y="416" width="9" height="9" transform="rotate(0,366.5,420.5)"/><rect x="362" y="425" width="9" height="9" transform="rotate(0,366.5,429.5)"/><rect x="362" y="443" width="9" height="9" transform="rotate(0,366.5,447.5)"/><rect x="362" y="452" width="9" height="9" transform="rotate(0,366.5,456.5)"/><rect x="362" y="461" width="9" height="9" transform="rotate(0,366.5,465.5)"/><rect x="371" y="38" width="9" height="9" transform="rotate(0,375.5,42.5)"/><rect x="371" y="74" width="9" height="9" transform="rotate(0,375.5,78.5)"/><rect x="371" y="83" width="9" height="9" transform="rotate(0,375.5,87.5)"/><rect x="371" y="92" width="9" height="9" transform="rotate(0,375.5,96.5)"/><rect x="371" y="101" width="9" height="9" transform="rotate(0,375.5,105.5)"/><rect x="371" y="128" width="9" height="9" transform="rotate(0,375.5,132.5)"/><rect x="371" y="137" width="9" height="9" transform="rotate(0,375.5,141.5)"/><rect x="371" y="173" width="9" height="9" transform="rotate(0,375.5,177.5)"/><rect x="371" y="191" width="9" height="9" transform="rotate(0,375.5,195.5)"/><rect x="371" y="209" width="9" height="9" transform="rotate(0,375.5,213.5)"/><rect x="371" y="218" width="9" height="9" transform="rotate(0,375.5,222.5)"/><rect x="371" y="227" width="9" height="9" transform="rotate(0,375.5,231.5)"/><rect x="371" y="236" width="9" height="9" transform="rotate(0,375.5,240.5)"/><rect x="371" y="281" width="9" height="9" transform="rotate(0,375.5,285.5)"/><rect x="371" y="290" width="9" height="9" transform="rotate(0,375.5,294.5)"/><rect x="371" y="299" width="9" height="9" transform="rotate(0,375.5,303.5)"/><rect x="371" y="317" width="9" height="9" transform="rotate(0,375.5,321.5)"/><rect x="371" y="344" width="9" height="9" transform="rotate(0,375.5,348.5)"/><rect x="371" y="362" width="9" height="9" transform="rotate(0,375.5,366.5)"/><rect x="371" y="371" width="9" height="9" transform="rotate(0,375.5,375.5)"/><rect x="371" y="416" width="9" height="9" transform="rotate(0,375.5,420.5)"/><rect x="371" y="434" width="9" height="9" transform="rotate(0,375.5,438.5)"/><rect x="371" y="443" width="9" height="9" transform="rotate(0,375.5,447.5)"/><rect x="371" y="452" width="9" height="9" transform="rotate(0,375.5,456.5)"/><rect x="380" y="38" width="9" height="9" transform="rotate(0,384.5,42.5)"/><rect x="380" y="47" width="9" height="9" transform="rotate(0,384.5,51.5)"/><rect x="380" y="56" width="9" height="9" transform="rotate(0,384.5,60.5)"/><rect x="380" y="92" width="9" height="9" transform="rotate(0,384.5,96.5)"/><rect x="380" y="128" width="9" height="9" transform="rotate(0,384.5,132.5)"/><rect x="380" y="146" width="9" height="9" transform="rotate(0,384.5,150.5)"/><rect x="380" y="173" width="9" height="9" transform="rotate(0,384.5,177.5)"/><rect x="380" y="182" width="9" height="9" transform="rotate(0,384.5,186.5)"/><rect x="380" y="191" width="9" height="9" transform="rotate(0,384.5,195.5)"/><rect x="380" y="236" width="9" height="9" transform="rotate(0,384.5,240.5)"/><rect x="380" y="254" width="9" height="9" transform="rotate(0,384.5,258.5)"/><rect x="380" y="263" width="9" height="9" transform="rotate(0,384.5,267.5)"/><rect x="380" y="272" width="9" height="9" transform="rotate(0,384.5,276.5)"/><rect x="380" y="281" width="9" height="9" transform="rotate(0,384.5,285.5)"/><rect x="380" y="290" width="9" height="9" transform="rotate(0,384.5,294.5)"/><rect x="380" y="317" width="9" height="9" transform="rotate(0,384.5,321.5)"/><rect x="380" y="335" width="9" height="9" transform="rotate(0,384.5,339.5)"/><rect x="380" y="416" width="9" height="9" transform="rotate(0,384.5,420.5)"/><rect x="389" y="29" width="9" height="9" transform="rotate(0,393.5,33.5)"/><rect x="389" y="38" width="9" height="9" transform="rotate(0,393.5,42.5)"/><rect x="389" y="47" width="9" height="9" transform="rotate(0,393.5,51.5)"/><rect x="389" y="83" width="9" height="9" transform="rotate(0,393.5,87.5)"/><rect x="389" y="92" width="9" height="9" transform="rotate(0,393.5,96.5)"/><rect x="389" y="101" width="9" height="9" transform="rotate(0,393.5,105.5)"/><rect x="389" y="110" width="9" height="9" transform="rotate(0,393.5,114.5)"/><rect x="389" y="119" width="9" height="9" transform="rotate(0,393.5,123.5)"/><rect x="389" y="128" width="9" height="9" transform="rotate(0,393.5,132.5)"/><rect x="389" y="137" width="9" height="9" transform="rotate(0,393.5,141.5)"/><rect x="389" y="173" width="9" height="9" transform="rotate(0,393.5,177.5)"/><rect x="389" y="182" width="9" height="9" transform="rotate(0,393.5,186.5)"/><rect x="389" y="191" width="9" height="9" transform="rotate(0,393.5,195.5)"/><rect x="389" y="209" width="9" height="9" transform="rotate(0,393.5,213.5)"/><rect x="389" y="227" width="9" height="9" transform="rotate(0,393.5,231.5)"/><rect x="389" y="236" width="9" height="9" transform="rotate(0,393.5,240.5)"/><rect x="389" y="245" width="9" height="9" transform="rotate(0,393.5,249.5)"/><rect x="389" y="254" width="9" height="9" transform="rotate(0,393.5,258.5)"/><rect x="389" y="263" width="9" height="9" transform="rotate(0,393.5,267.5)"/><rect x="389" y="272" width="9" height="9" transform="rotate(0,393.5,276.5)"/><rect x="389" y="290" width="9" height="9" transform="rotate(0,393.5,294.5)"/><rect x="389" y="299" width="9" height="9" transform="rotate(0,393.5,303.5)"/><rect x="389" y="308" width="9" height="9" transform="rotate(0,393.5,312.5)"/><rect x="389" y="317" width="9" height="9" transform="rotate(0,393.5,321.5)"/><rect x="389" y="335" width="9" height="9" transform="rotate(0,393.5,339.5)"/><rect x="389" y="344" width="9" height="9" transform="rotate(0,393.5,348.5)"/><rect x="389" y="371" width="9" height="9" transform="rotate(0,393.5,375.5)"/><rect x="389" y="389" width="9" height="9" transform="rotate(0,393.5,393.5)"/><rect x="389" y="398" width="9" height="9" transform="rotate(0,393.5,402.5)"/><rect x="389" y="407" width="9" height="9" transform="rotate(0,393.5,411.5)"/><rect x="389" y="416" width="9" height="9" transform="rotate(0,393.5,420.5)"/><rect x="389" y="425" width="9" height="9" transform="rotate(0,393.5,429.5)"/><rect x="389" y="443" width="9" height="9" transform="rotate(0,393.5,447.5)"/><rect x="389" y="461" width="9" height="9" transform="rotate(0,393.5,465.5)"/><rect x="398" y="101" width="9" height="9" transform="rotate(0,402.5,105.5)"/><rect x="398" y="110" width="9" height="9" transform="rotate(0,402.5,114.5)"/><rect x="398" y="128" width="9" height="9" transform="rotate(0,402.5,132.5)"/><rect x="398" y="137" width="9" height="9" transform="rotate(0,402.5,141.5)"/><rect x="398" y="146" width="9" height="9" transform="rotate(0,402.5,150.5)"/><rect x="398" y="173" width="9" height="9" transform="rotate(0,402.5,177.5)"/><rect x="398" y="191" width="9" height="9" transform="rotate(0,402.5,195.5)"/><rect x="398" y="200" width="9" height="9" transform="rotate(0,402.5,204.5)"/><rect x="398" y="218" width="9" height="9" transform="rotate(0,402.5,222.5)"/><rect x="398" y="227" width="9" height="9" transform="rotate(0,402.5,231.5)"/><rect x="398" y="263" width="9" height="9" transform="rotate(0,402.5,267.5)"/><rect x="398" y="272" width="9" height="9" transform="rotate(0,402.5,276.5)"/><rect x="398" y="281" width="9" height="9" transform="rotate(0,402.5,285.5)"/><rect x="398" y="290" width="9" height="9" transform="rotate(0,402.5,294.5)"/><rect x="398" y="299" width="9" height="9" transform="rotate(0,402.5,303.5)"/><rect x="398" y="317" width="9" height="9" transform="rotate(0,402.5,321.5)"/><rect x="398" y="326" width="9" height="9" transform="rotate(0,402.5,330.5)"/><rect x="398" y="344" width="9" height="9" transform="rotate(0,402.5,348.5)"/><rect x="398" y="380" width="9" height="9" transform="rotate(0,402.5,384.5)"/><rect x="398" y="389" width="9" height="9" transform="rotate(0,402.5,393.5)"/><rect x="398" y="425" width="9" height="9" transform="rotate(0,402.5,429.5)"/><rect x="398" y="434" width="9" height="9" transform="rotate(0,402.5,438.5)"/><rect x="398" y="443" width="9" height="9" transform="rotate(0,402.5,447.5)"/><rect x="398" y="461" width="9" height="9" transform="rotate(0,402.5,465.5)"/><rect x="407" y="110" width="9" height="9" transform="rotate(0,411.5,114.5)"/><rect x="407" y="155" width="9" height="9" transform="rotate(0,411.5,159.5)"/><rect x="407" y="164" width="9" height="9" transform="rotate(0,411.5,168.5)"/><rect x="407" y="191" width="9" height="9" transform="rotate(0,411.5,195.5)"/><rect x="407" y="209" width="9" height="9" transform="rotate(0,411.5,213.5)"/><rect x="407" y="227" width="9" height="9" transform="rotate(0,411.5,231.5)"/><rect x="407" y="245" width="9" height="9" transform="rotate(0,411.5,249.5)"/><rect x="407" y="263" width="9" height="9" transform="rotate(0,411.5,267.5)"/><rect x="407" y="272" width="9" height="9" transform="rotate(0,411.5,276.5)"/><rect x="407" y="281" width="9" height="9" transform="rotate(0,411.5,285.5)"/><rect x="407" y="299" width="9" height="9" transform="rotate(0,411.5,303.5)"/><rect x="407" y="308" width="9" height="9" transform="rotate(0,411.5,312.5)"/><rect x="407" y="317" width="9" height="9" transform="rotate(0,411.5,321.5)"/><rect x="407" y="326" width="9" height="9" transform="rotate(0,411.5,330.5)"/><rect x="407" y="344" width="9" height="9" transform="rotate(0,411.5,348.5)"/><rect x="407" y="371" width="9" height="9" transform="rotate(0,411.5,375.5)"/><rect x="407" y="389" width="9" height="9" transform="rotate(0,411.5,393.5)"/><rect x="407" y="407" width="9" height="9" transform="rotate(0,411.5,411.5)"/><rect x="407" y="425" width="9" height="9" transform="rotate(0,411.5,429.5)"/><rect x="407" y="434" width="9" height="9" transform="rotate(0,411.5,438.5)"/><rect x="407" y="452" width="9" height="9" transform="rotate(0,411.5,456.5)"/><rect x="407" y="461" width="9" height="9" transform="rotate(0,411.5,465.5)"/><rect x="416" y="101" width="9" height="9" transform="rotate(0,420.5,105.5)"/><rect x="416" y="119" width="9" height="9" transform="rotate(0,420.5,123.5)"/><rect x="416" y="137" width="9" height="9" transform="rotate(0,420.5,141.5)"/><rect x="416" y="155" width="9" height="9" transform="rotate(0,420.5,159.5)"/><rect x="416" y="182" width="9" height="9" transform="rotate(0,420.5,186.5)"/><rect x="416" y="200" width="9" height="9" transform="rotate(0,420.5,204.5)"/><rect x="416" y="218" width="9" height="9" transform="rotate(0,420.5,222.5)"/><rect x="416" y="227" width="9" height="9" transform="rotate(0,420.5,231.5)"/><rect x="416" y="263" width="9" height="9" transform="rotate(0,420.5,267.5)"/><rect x="416" y="281" width="9" height="9" transform="rotate(0,420.5,285.5)"/><rect x="416" y="290" width="9" height="9" transform="rotate(0,420.5,294.5)"/><rect x="416" y="344" width="9" height="9" transform="rotate(0,420.5,348.5)"/><rect x="416" y="353" width="9" height="9" transform="rotate(0,420.5,357.5)"/><rect x="416" y="362" width="9" height="9" transform="rotate(0,420.5,366.5)"/><rect x="416" y="389" width="9" height="9" transform="rotate(0,420.5,393.5)"/><rect x="416" y="425" width="9" height="9" transform="rotate(0,420.5,429.5)"/><rect x="416" y="434" width="9" height="9" transform="rotate(0,420.5,438.5)"/><rect x="416" y="461" width="9" height="9" transform="rotate(0,420.5,465.5)"/><rect x="425" y="137" width="9" height="9" transform="rotate(0,429.5,141.5)"/><rect x="425" y="155" width="9" height="9" transform="rotate(0,429.5,159.5)"/><rect x="425" y="182" width="9" height="9" transform="rotate(0,429.5,186.5)"/><rect x="425" y="191" width="9" height="9" transform="rotate(0,429.5,195.5)"/><rect x="425" y="227" width="9" height="9" transform="rotate(0,429.5,231.5)"/><rect x="425" y="236" width="9" height="9" transform="rotate(0,429.5,240.5)"/><rect x="425" y="245" width="9" height="9" transform="rotate(0,429.5,249.5)"/><rect x="425" y="254" width="9" height="9" transform="rotate(0,429.5,258.5)"/><rect x="425" y="263" width="9" height="9" transform="rotate(0,429.5,267.5)"/><rect x="425" y="272" width="9" height="9" transform="rotate(0,429.5,276.5)"/><rect x="425" y="281" width="9" height="9" transform="rotate(0,429.5,285.5)"/><rect x="425" y="290" width="9" height="9" transform="rotate(0,429.5,294.5)"/><rect x="425" y="326" width="9" height="9" transform="rotate(0,429.5,330.5)"/><rect x="425" y="344" width="9" height="9" transform="rotate(0,429.5,348.5)"/><rect x="425" y="371" width="9" height="9" transform="rotate(0,429.5,375.5)"/><rect x="425" y="389" width="9" height="9" transform="rotate(0,429.5,393.5)"/><rect x="425" y="398" width="9" height="9" transform="rotate(0,429.5,402.5)"/><rect x="425" y="407" width="9" height="9" transform="rotate(0,429.5,411.5)"/><rect x="425" y="416" width="9" height="9" transform="rotate(0,429.5,420.5)"/><rect x="425" y="425" width="9" height="9" transform="rotate(0,429.5,429.5)"/><rect x="425" y="434" width="9" height="9" transform="rotate(0,429.5,438.5)"/><rect x="425" y="452" width="9" height="9" transform="rotate(0,429.5,456.5)"/><rect x="434" y="101" width="9" height="9" transform="rotate(0,438.5,105.5)"/><rect x="434" y="119" width="9" height="9" transform="rotate(0,438.5,123.5)"/><rect x="434" y="146" width="9" height="9" transform="rotate(0,438.5,150.5)"/><rect x="434" y="155" width="9" height="9" transform="rotate(0,438.5,159.5)"/><rect x="434" y="182" width="9" height="9" transform="rotate(0,438.5,186.5)"/><rect x="434" y="200" width="9" height="9" transform="rotate(0,438.5,204.5)"/><rect x="434" y="218" width="9" height="9" transform="rotate(0,438.5,222.5)"/><rect x="434" y="227" width="9" height="9" transform="rotate(0,438.5,231.5)"/><rect x="434" y="245" width="9" height="9" transform="rotate(0,438.5,249.5)"/><rect x="434" y="254" width="9" height="9" transform="rotate(0,438.5,258.5)"/><rect x="434" y="290" width="9" height="9" transform="rotate(0,438.5,294.5)"/><rect x="434" y="299" width="9" height="9" transform="rotate(0,438.5,303.5)"/><rect x="434" y="308" width="9" height="9" transform="rotate(0,438.5,312.5)"/><rect x="434" y="344" width="9" height="9" transform="rotate(0,438.5,348.5)"/><rect x="434" y="362" width="9" height="9" transform="rotate(0,438.5,366.5)"/><rect x="434" y="380" width="9" height="9" transform="rotate(0,438.5,384.5)"/><rect x="434" y="389" width="9" height="9" transform="rotate(0,438.5,393.5)"/><rect x="434" y="407" width="9" height="9" transform="rotate(0,438.5,411.5)"/><rect x="434" y="416" width="9" height="9" transform="rotate(0,438.5,420.5)"/><rect x="434" y="425" width="9" height="9" transform="rotate(0,438.5,429.5)"/><rect x="443" y="101" width="9" height="9" transform="rotate(0,447.5,105.5)"/><rect x="443" y="119" width="9" height="9" transform="rotate(0,447.5,123.5)"/><rect x="443" y="128" width="9" height="9" transform="rotate(0,447.5,132.5)"/><rect x="443" y="164" width="9" height="9" transform="rotate(0,447.5,168.5)"/><rect x="443" y="173" width="9" height="9" transform="rotate(0,447.5,177.5)"/><rect x="443" y="191" width="9" height="9" transform="rotate(0,447.5,195.5)"/><rect x="443" y="209" width="9" height="9" transform="rotate(0,447.5,213.5)"/><rect x="443" y="218" width="9" height="9" transform="rotate(0,447.5,222.5)"/><rect x="443" y="254" width="9" height="9" transform="rotate(0,447.5,258.5)"/><rect x="443" y="272" width="9" height="9" transform="rotate(0,447.5,276.5)"/><rect x="443" y="281" width="9" height="9" transform="rotate(0,447.5,285.5)"/><rect x="443" y="290" width="9" height="9" transform="rotate(0,447.5,294.5)"/><rect x="443" y="299" width="9" height="9" transform="rotate(0,447.5,303.5)"/><rect x="443" y="308" width="9" height="9" transform="rotate(0,447.5,312.5)"/><rect x="443" y="326" width="9" height="9" transform="rotate(0,447.5,330.5)"/><rect x="443" y="335" width="9" height="9" transform="rotate(0,447.5,339.5)"/><rect x="443" y="353" width="9" height="9" transform="rotate(0,447.5,357.5)"/><rect x="443" y="416" width="9" height="9" transform="rotate(0,447.5,420.5)"/><rect x="443" y="425" width="9" height="9" transform="rotate(0,447.5,429.5)"/><rect x="443" y="434" width="9" height="9" transform="rotate(0,447.5,438.5)"/><rect x="452" y="101" width="9" height="9" transform="rotate(0,456.5,105.5)"/><rect x="452" y="128" width="9" height="9" transform="rotate(0,456.5,132.5)"/><rect x="452" y="137" width="9" height="9" transform="rotate(0,456.5,141.5)"/><rect x="452" y="146" width="9" height="9" transform="rotate(0,456.5,150.5)"/><rect x="452" y="155" width="9" height="9" transform="rotate(0,456.5,159.5)"/><rect x="452" y="173" width="9" height="9" transform="rotate(0,456.5,177.5)"/><rect x="452" y="182" width="9" height="9" transform="rotate(0,456.5,186.5)"/><rect x="452" y="191" width="9" height="9" transform="rotate(0,456.5,195.5)"/><rect x="452" y="218" width="9" height="9" transform="rotate(0,456.5,222.5)"/><rect x="452" y="227" width="9" height="9" transform="rotate(0,456.5,231.5)"/><rect x="452" y="236" width="9" height="9" transform="rotate(0,456.5,240.5)"/><rect x="452" y="245" width="9" height="9" transform="rotate(0,456.5,249.5)"/><rect x="452" y="299" width="9" height="9" transform="rotate(0,456.5,303.5)"/><rect x="452" y="308" width="9" height="9" transform="rotate(0,456.5,312.5)"/><rect x="452" y="317" width="9" height="9" transform="rotate(0,456.5,321.5)"/><rect x="452" y="335" width="9" height="9" transform="rotate(0,456.5,339.5)"/><rect x="452" y="353" width="9" height="9" transform="rotate(0,456.5,357.5)"/><rect x="452" y="362" width="9" height="9" transform="rotate(0,456.5,366.5)"/><rect x="452" y="389" width="9" height="9" transform="rotate(0,456.5,393.5)"/><rect x="452" y="398" width="9" height="9" transform="rotate(0,456.5,402.5)"/><rect x="452" y="425" width="9" height="9" transform="rotate(0,456.5,429.5)"/><rect x="452" y="434" width="9" height="9" transform="rotate(0,456.5,438.5)"/><rect x="452" y="443" width="9" height="9" transform="rotate(0,456.5,447.5)"/><rect x="461" y="128" width="9" height="9" transform="rotate(0,465.5,132.5)"/><rect x="461" y="146" width="9" height="9" transform="rotate(0,465.5,150.5)"/><rect x="461" y="173" width="9" height="9" transform="rotate(0,465.5,177.5)"/><rect x="461" y="191" width="9" height="9" transform="rotate(0,465.5,195.5)"/><rect x="461" y="200" width="9" height="9" transform="rotate(0,465.5,204.5)"/><rect x="461" y="209" width="9" height="9" transform="rotate(0,465.5,213.5)"/><rect x="461" y="218" width="9" height="9" transform="rotate(0,465.5,222.5)"/><rect x="461" y="245" width="9" height="9" transform="rotate(0,465.5,249.5)"/><rect x="461" y="254" width="9" height="9" transform="rotate(0,465.5,258.5)"/><rect x="461" y="263" width="9" height="9" transform="rotate(0,465.5,267.5)"/><rect x="461" y="290" width="9" height="9" transform="rotate(0,465.5,294.5)"/><rect x="461" y="299" width="9" height="9" transform="rotate(0,465.5,303.5)"/><rect x="461" y="308" width="9" height="9" transform="rotate(0,465.5,312.5)"/><rect x="461" y="326" width="9" height="9" transform="rotate(0,465.5,330.5)"/><rect x="461" y="335" width="9" height="9" transform="rotate(0,465.5,339.5)"/><rect x="461" y="353" width="9" height="9" transform="rotate(0,465.5,357.5)"/><rect x="461" y="371" width="9" height="9" transform="rotate(0,465.5,375.5)"/><rect x="461" y="398" width="9" height="9" transform="rotate(0,465.5,402.5)"/><rect x="461" y="416" width="9" height="9" transform="rotate(0,465.5,420.5)"/><rect x="461" y="443" width="9" height="9" transform="rotate(0,465.5,447.5)"/><rect x="461" y="452" width="9" height="9" transform="rotate(0,465.5,456.5)"/><rect x="461" y="461" width="9" height="9" transform="rotate(0,465.5,465.5)"/><path clip-rule="evenodd" d="M 29 29v 63h 63v -63zM 38 38h 45v 45h -45z" transform="rotate(0,60.5,60.5)"/><rect x="47" y="47" width="27" height="27" transform="rotate(0,60.5,60.5)"/><path clip-rule="evenodd" d="M 407 29v 63h 63v -63zM 416 38h 45v 45h -45z" transform="rotate(90,438.5,60.5)"/><rect x="425" y="47" width="27" height="27" transform="rotate(90,438.5,60.5)"/><path clip-rule="evenodd" d="M 29 407v 63h 63v -63zM 38 416h 45v 45h -45z" transform="rotate(-90,60.5,438.5)"/><rect x="47" y="425" width="27" height="27" transform="rotate(-90,60.5,438.5)"/></clipPath></defs><rect x="0" y="0" height="500" width="500" clip-path="url('#clip-path-background-color')" fill="#fff"/><rect x="0" y="0" height="500" width="500" clip-path="url('#clip-path-dot-color')" fill="#000000"/></svg>